<svg width="553" height="534" xmlns="http://www.w3.org/2000/svg" xmlns:xlink="http://www.w3.org/1999/xlink" overflow="hidden"><defs><linearGradient x1="796.935" y1="360.644" x2="798.809" y2="353.65" gradientUnits="userSpaceOnUse" spreadMethod="reflect" id="fill0"><stop offset="0" stop-color="#FFDB5E"/><stop offset="0.48" stop-color="#FFDB5E"/><stop offset="1" stop-color="#FFCB18"/></linearGradient><linearGradient x1="796.935" y1="360.644" x2="798.809" y2="353.65" gradientUnits="userSpaceOnUse" spreadMethod="reflect" id="fill1"><stop offset="0" stop-color="#FFDB5E"/><stop offset="0.48" stop-color="#FFDB5E"/><stop offset="1" stop-color="#FFCB18"/></linearGradient><linearGradient x1="796.935" y1="360.644" x2="798.809" y2="353.65" gradientUnits="userSpaceOnUse" spreadMethod="reflect" id="fill2"><stop offset="0" stop-color="#FFDB5E"/><stop offset="0.48" stop-color="#FFDB5E"/><stop offset="1" stop-color="#FFCB18"/></linearGradient><linearGradient x1="796.935" y1="360.644" x2="798.809" y2="353.65" gradientUnits="userSpaceOnUse" spreadMethod="reflect" id="fill3"><stop offset="0" stop-color="#FFDB5E"/><stop offset="0.48" stop-color="#FFDB5E"/><stop offset="1" stop-color="#FFCB18"/></linearGradient><linearGradient x1="796.935" y1="360.644" x2="798.809" y2="353.65" gradientUnits="userSpaceOnUse" spreadMethod="reflect" id="fill4"><stop offset="0" stop-color="#FFDB5E"/><stop offset="0.48" stop-color="#FFDB5E"/><stop offset="1" stop-color="#FFCB18"/></linearGradient><linearGradient x1="16.366" y1="39.366" x2="16.366" y2="-1.15422e-06" gradientUnits="userSpaceOnUse" spreadMethod="reflect" id="fill5"><stop offset="0" stop-color="#FFDB5E"/><stop offset="0.48" stop-color="#FFDB5E"/><stop offset="1" stop-color="#FFCB18"/></linearGradient><linearGradient x1="829.015" y1="363.534" x2="818.826" y2="401.559" gradientUnits="userSpaceOnUse" spreadMethod="reflect" id="fill6"><stop offset="0" stop-color="#FFDB5E"/><stop offset="0.48" stop-color="#FFDB5E"/><stop offset="1" stop-color="#FFCB18"/></linearGradient><linearGradient x1="791.486" y1="380.982" x2="795.496" y2="366.013" gradientUnits="userSpaceOnUse" spreadMethod="reflect" id="fill7"><stop offset="0" stop-color="#FFDB5E"/><stop offset="0.48" stop-color="#FFDB5E"/><stop offset="1" stop-color="#FFCB18"/></linearGradient></defs><g transform="translate(-364 -100)"><path d="M97.4964 17.253C-35.7859 156.156-22.6814 275.74 76.2964 331.476 167.985 383.107 146.717 497.256 272.809 472.26 398.903 447.262 478.665 390.017 494.648 245.413 505.788 144.621 433.318 10.5846 314.886 14.0872 196.455 17.5908 135.103-21.9404 97.4964 17.253" fill="#FFDB5E" fill-rule="evenodd" transform="matrix(1 0 0 -1 392 618)"/><path d="M48.9051-0.114615C11.8302 42.8639-0.0949718 115.885-0.0949718 115.885" stroke="#1F160F" stroke-width="1.33333" stroke-linecap="round" stroke-linejoin="round" stroke-miterlimit="10" fill="none" fill-rule="evenodd" transform="matrix(1 0 0 -1 422.5 545.5)"/><path d="M39.9173-0.108327C22.4685 3.88853-0.0828232 20.7421-0.0828232 20.7421 22.971 27.8214 39.9173-0.108327 39.9173-0.108327" fill="#F2F2F2" fill-rule="evenodd" transform="matrix(1 0 0 -1 407 508)"/><path d="M3.07806-0.109933C-8.10616 27.3833 13.854 28.8902 13.854 28.8902 14.7542 13.6853 3.07806-0.109933 3.07806-0.109933" fill="#F2F2F2" fill-rule="evenodd" transform="matrix(1 0 0 -1 444 508)"/><path d="M32.9229-0.131393C10.8454 5.60196-0.0771871 19.9953-0.0771871 19.9953 16.5207 29.4794 32.9229-0.131393 32.9229-0.131393" fill="#F2F2F2" fill-rule="evenodd" transform="matrix(1 0 0 -1 403 480)"/><path d="M2.18086-0.136877C-5.96868 23.309 10.4465 32.8631 10.4465 32.8631 13.2859 11.4642 2.18086-0.136877 2.18086-0.136877" fill="#F2F2F2" fill-rule="evenodd" transform="matrix(1 0 0 -1 433 480)"/><path d="M9.73605-0.16556C-5.42452 9.42905 1.4971 38.8345 1.4971 38.8345 23.3369 25.5836 9.73605-0.16556 9.73605-0.16556" fill="#F2F2F2" fill-rule="evenodd" transform="matrix(1 0 0 -1 417 451)"/><path d="M0.738735-0.0901041C-3.98971 18.0823 12.487 27.9099 12.487 27.9099 18.9849 13.7267 0.738735-0.0901041 0.738735-0.0901041" fill="#F2F2F2" fill-rule="evenodd" transform="matrix(1 0 0 -1 457 527)"/><path d="M30.907-0.0372728C14.0873-0.753092-0.0931272 7.86959-0.0931272 7.86959 15.7759 17.9072 30.907-0.0372728 30.907-0.0372728" fill="#F2F2F2" fill-rule="evenodd" transform="matrix(1 0 0 -1 427 527)"/><path d="M106.284-0.0534326C62.9848 1.69235 20.5333 47.7849 22.4396 57.7015 24.4418 68.1173 43.4026 68.8346 43.4026 68.8346 3.91901 101.309-3.72972 138.587 1.29414 144.048 8.42397 151.799 46.324 136.739 65.1757 81.7797 65.1757 81.7797 69.1227 95.6151 82.9403 95.9477 95.3355 96.2471 110.204 26.687 106.284-0.0534326" fill="#F2F2F2" fill-rule="evenodd" transform="matrix(1 0 0 -1 365 628)"/><path d="M94.9207-0.0494155C54.635 74.8752-0.0792621 136.951-0.0792621 136.951" stroke="#1F160F" stroke-width="1.33333" stroke-linecap="round" stroke-linejoin="round" stroke-miterlimit="10" fill="none" fill-rule="evenodd" transform="matrix(1 0 0 -1 376.5 628.5)"/><path d="M-0.0866044 50.4517C-0.0866044 50.4517 35.0242 29.3133 66.9134-0.0264396 66.9134-0.0264396 53.5538 55.6042 45.7966 75.9737" stroke="#1F160F" stroke-width="1.33333" stroke-linecap="round" stroke-linejoin="round" stroke-miterlimit="10" fill="none" fill-rule="evenodd" transform="matrix(1 0 0 -1 401.5 623.5)"/><path d="M2.15145-0.0675016C-14.0552 111.596 52.7297 152.074 66.5061 150.908 83.5273 149.469 26.6487 17.6666 2.15145-0.0675016" fill="#F2F2F2" fill-rule="evenodd" transform="matrix(1 0 0 -1 809 615)"/><path d="M-0.363041-0.0613518C10.3262 66.1892 54.637 136.939 54.637 136.939" stroke="#1F160F" stroke-width="1.33333" stroke-linecap="round" stroke-linejoin="round" stroke-miterlimit="10" fill="none" fill-rule="evenodd" transform="matrix(1 0 0 -1 812.5 615.5)"/><path d="M-0.234098-0.0438261C70.07 19.7277 110.699 117.453 103.878 123.166 95.9977 129.765-4.72154 95.6043-0.234098-0.0438261" fill="#F2F2F2" fill-rule="evenodd" transform="matrix(1 0 0 -1 812 628)"/><path d="M59.638 108.963C30.1561 90.8574-2.81862 55.8999-0.217401-0.0370843" stroke="#1F160F" stroke-width="1.33333" stroke-linecap="round" stroke-linejoin="round" stroke-miterlimit="10" fill="none" fill-rule="evenodd" transform="matrix(1 0 0 -1 812.5 628.5)"/><path d="M-0.377849-0.0424129C43.6422 87.3535 99.6223 120.958 99.6223 120.958" stroke="#1F160F" stroke-width="1.33333" stroke-linecap="round" stroke-linejoin="round" stroke-miterlimit="10" fill="none" fill-rule="evenodd" transform="matrix(1 0 0 -1 812.5 628.5)"/><path d="M343.773 506.79 7.7726 506.79C3.35528 506.79-0.227402 503.206-0.227402 498.784L-0.227402 7.79494C-0.227402 3.37492 3.35528-0.210322 7.7726-0.210322L343.773-0.210322C348.191-0.210322 351.773 3.37492 351.773 7.79494L351.773 498.784C351.773 503.206 348.191 506.79 343.773 506.79" fill="#A35530" fill-rule="evenodd" transform="matrix(1 0 0 -1 464 633)"/><path d="M-0.227169-0.210184-0.227169 479.79 324.773 479.79 324.773-0.210184-0.227169-0.210184" fill="#F2F2F2" fill-rule="evenodd" transform="matrix(1 0 0 -1 477 619)"/><path d="M13.1055 7.72731 2.61603 7.72731C1.09377 7.72731-0.139284 6.42329-0.139284 4.81342L-0.139284-0.272804 15.8608-0.272804 15.8608 4.81342C15.8608 6.42329 14.6279 7.72731 13.1055 7.72731" fill="#D1795C" fill-rule="evenodd" transform="matrix(1 0 0 -1 496 339)"/><path d="M20.2173 70.5368 20.2173 74.7879 7.51957 74.7879 7.51957 70.5368C7.51957 68.38 5.80696 66.6315 3.69329 66.6315L3.69329 66.6315C1.58095 66.6315-0.131669 64.883-0.131669 62.7248L-0.131669 3.69435C-0.131669 1.53627 1.58095-0.212228 3.69329-0.212228L24.0422-0.212228C26.1559-0.212228 27.8684 1.53627 27.8684 3.69435L27.8684 62.7248C27.8684 64.883 26.1559 66.6315 24.0422 66.6315L24.0422 66.6315C21.9298 66.6315 20.2173 68.38 20.2173 70.5368" fill="#D1795C" fill-rule="evenodd" transform="matrix(1 0 0 -1 490 414)"/><path d="M12.2617 7.72731 2.42791 7.72731C1.0007 7.72731-0.15519 6.42329-0.15519 4.81342L-0.15519-0.272804 14.8448-0.272804 14.8448 4.81342C14.8448 6.42329 13.6889 7.72731 12.2617 7.72731" fill="#D1795C" fill-rule="evenodd" transform="matrix(1 0 0 -1 534 339)"/><path d="M20.9135 70.5368 20.9135 74.7879 7.76232 74.7879 7.76232 70.5368C7.76232 68.38 5.98865 66.6315 3.79938 66.6315L3.79938 66.6315C1.6116 66.6315-0.162073 64.883-0.162073 62.7248L-0.162073 3.69435C-0.162073 1.53627 1.6116-0.212228 3.79938-0.212228L24.8751-0.212228C27.0643-0.212228 28.838 1.53627 28.838 3.69435L28.838 62.7248C28.838 64.883 27.0643 66.6315 24.8751 66.6315L24.8751 66.6315C22.6872 66.6315 20.9135 68.38 20.9135 70.5368" fill="#D1795C" fill-rule="evenodd" transform="matrix(1 0 0 -1 527 414)"/><path d="M15.1797 2.66297 1.25484 2.66297C0.40573 2.66297-0.282713 1.99145-0.282713 1.16297L-0.282713 1.16297C-0.282713 0.3346 0.40573-0.337028 1.25484-0.337028L15.1797-0.337028C16.029-0.337028 16.7174 0.3346 16.7174 1.16297L16.7174 1.16297C16.7174 1.99145 16.029 2.66297 15.1797 2.66297" fill="#D1795C" fill-rule="evenodd" transform="matrix(1 0 0 -1 700 241)"/><path d="M10.1672 6.6511 2.30442 6.6511C0.885281 6.6511-0.264249 5.42477-0.264249 3.91083L-0.264249-0.349007 12.7359-0.349007 12.7359 3.91083C12.7359 5.42477 11.5863 6.6511 10.1672 6.6511" fill="#D1795C" fill-rule="evenodd" transform="matrix(1 0 0 -1 702 238)"/><path d="M20.7982 46.1559 20.7982 48.6937 7.64698 48.6937 7.64698 46.1559C7.64698 42.6286 6.2239 39.2415 3.68404 36.7209L3.68404 36.7209C1.14418 34.2002-0.277522 30.8118-0.277522 27.2845L-0.277522 3.54471C-0.277522 1.41855 1.49626-0.306436 3.68404-0.306436L24.7611-0.306436C26.9489-0.306436 28.7226 1.41855 28.7226 3.54471L28.7226 27.2845C28.7226 30.8118 27.2996 34.2002 24.7611 36.7209L24.7598 36.7209C22.2212 39.2415 20.7982 42.6286 20.7982 46.1559" fill="#D1795C" fill-rule="evenodd" transform="matrix(1 0 0 -1 694 290)"/><path d="M14.254 2.66297 1.14824 2.66297C0.348973 2.66297-0.298974 1.99145-0.298974 1.16297L-0.298974 1.16297C-0.298974 0.3346 0.348973-0.337028 1.14824-0.337028L14.254-0.337028C15.0532-0.337028 15.7011 0.3346 15.7011 1.16297L15.7011 1.16297C15.7011 1.99145 15.0532 2.66297 14.254 2.66297" fill="#D1795C" fill-rule="evenodd" transform="matrix(1 0 0 -1 750 241)"/><path d="M10.9141 6.6511 2.44651 6.6511C0.918202 6.6511-0.319754 5.42477-0.319754 3.91083L-0.319754-0.349007 13.6804-0.349007 13.6804 3.91083C13.6804 5.42477 12.4424 6.6511 10.9141 6.6511" fill="#D1795C" fill-rule="evenodd" transform="matrix(1 0 0 -1 751 238)"/><path d="M20.0479 46.1559 20.0479 48.6937 7.35017 48.6937 7.35017 46.1559C7.35017 42.6286 5.97616 39.2415 3.52521 36.7209L3.52388 36.7209C1.07294 34.2002-0.301074 30.8118-0.301074 27.2845L-0.301074 3.54471C-0.301074 1.41855 1.41154-0.306436 3.52388-0.306436L23.8742-0.306436C25.9865-0.306436 27.699 1.41855 27.699 3.54471L27.699 27.2845C27.699 30.8118 26.3251 34.2002 23.8742 36.7209L23.8728 36.7209C21.4218 39.2415 20.0479 42.6286 20.0479 46.1559" fill="#D1795C" fill-rule="evenodd" transform="matrix(1 0 0 -1 744 290)"/><path d="M-0.251453-0.204624 19.7486-0.204624 11.224 6.67201 11.224 32.7126C20.0765 37.6381 18.929 56.7955 18.929 56.7955L9.74865 56.7955 0.568274 56.7955C0.568274 56.7955-0.579324 37.6381 8.27318 32.7126L8.27318 6.67201-0.251453-0.204624" fill="#D1795C" fill-rule="evenodd" transform="matrix(1 0 0 -1 671 414)"/><path d="M-0.268802-0.204624 19.7313-0.204624 11.2067 6.67201 11.2067 32.7126C20.0592 37.6381 18.9117 56.7955 18.9117 56.7955L9.7313 56.7955 0.550926 56.7955C0.550926 56.7955-0.596673 37.6381 8.25583 32.7126L8.25583 6.67201-0.268802-0.204624" fill="#D1795C" fill-rule="evenodd" transform="matrix(1 0 0 -1 697 414)"/><path d="M20.8051 48.6883-0.195017 48.6883-0.195017-0.311821 20.8051-0.311821 20.8051 48.6883" fill="#D1795C" fill-rule="evenodd" transform="matrix(1 0 0 -1 582 290)"/><path d="M7.80988 1.72609-0.190123 1.72609-0.190123-0.273912 7.80988-0.273912 7.80988 1.72609" fill="#D1795C" fill-rule="evenodd" transform="matrix(1 0 0 -1 588 241)"/><path d="M11.4053 3.70034 1.18773 3.70034C0.419793 3.70034-0.203543 3.16949-0.203543 2.5155L-0.203543 0.885085C-0.203543 0.229878 0.419793-0.299755 1.18773-0.299755L11.4053-0.299755C12.1747-0.299755 12.7966 0.229878 12.7966 0.885085L12.7966 2.5155C12.7966 3.16949 12.1747 3.70034 11.4053 3.70034" fill="#D1795C" fill-rule="evenodd" transform="matrix(1 0 0 -1 586 239)"/><path d="M20.8291 48.6883-0.170981 48.6883-0.170981-0.311821 20.8291-0.311821 20.8291 48.6883" fill="#D1795C" fill-rule="evenodd" transform="matrix(1 0 0 -1 547 290)"/><path d="M7.83331 1.72609-0.16669 1.72609-0.16669-0.273912 7.83331-0.273912 7.83331 1.72609" fill="#D1795C" fill-rule="evenodd" transform="matrix(1 0 0 -1 553 241)"/><path d="M10.5511 3.70034 1.11953 3.70034C0.410658 3.70034-0.164728 3.16949-0.164728 2.5155L-0.164728 0.885085C-0.164728 0.229878 0.410658-0.299755 1.11953-0.299755L10.5511-0.299755C11.2613-0.299755 11.8354 0.229878 11.8354 0.885085L11.8354 2.5155C11.8354 3.16949 11.2613 3.70034 10.5511 3.70034" fill="#D1795C" fill-rule="evenodd" transform="matrix(1 0 0 -1 551 239)"/><path d="M20.8532 48.6883-0.146945 48.6883-0.146945-0.311821 20.8532-0.311821 20.8532 48.6883" fill="#D1795C" fill-rule="evenodd" transform="matrix(1 0 0 -1 511 290)"/><path d="M7.85687 1.72609-0.143235 1.72609-0.143235-0.273912 7.85687-0.273912 7.85687 1.72609" fill="#D1795C" fill-rule="evenodd" transform="matrix(1 0 0 -1 518 241)"/><path d="M10.5744 3.70034 1.14256 3.70034C0.433768 3.70034-0.141556 3.16949-0.141556 2.5155L-0.141556 0.885085C-0.141556 0.229878 0.433768-0.299755 1.14256-0.299755L10.5744-0.299755C11.2832-0.299755 11.8585 0.229878 11.8585 0.885085L11.8585 2.5155C11.8585 3.16949 11.2832 3.70034 10.5744 3.70034" fill="#D1795C" fill-rule="evenodd" transform="matrix(1 0 0 -1 516 239)"/><path d="M16.4442 26.7032 1.11077 26.7032C0.3747 26.7032-0.222573 26.1154-0.222573 25.3913L-0.222573 4.95102C-0.222573 2.05285 2.16537-0.296791 5.11079-0.296791L12.4442-0.296791C15.3895-0.296791 17.7775 2.05285 17.7775 4.95102L17.7775 25.3913C17.7775 26.1154 17.1802 26.7032 16.4442 26.7032" fill="#D1795C" fill-rule="evenodd" transform="matrix(1 0 0 -1 624 290)"/><path d="M16.4231 26.7032 1.08967 26.7032C0.352338 26.7032-0.243676 26.1154-0.243676 25.3913L-0.243676 4.95102C-0.243676 2.05285 2.143-0.296791 5.08969-0.296791L12.4231-0.296791C15.3684-0.296791 17.7564 2.05285 17.7564 4.95102L17.7564 25.3913C17.7564 26.1154 17.159 26.7032 16.4231 26.7032" fill="#D1795C" fill-rule="evenodd" transform="matrix(1 0 0 -1 655 290)"/><path d="M324.773 39.9862-0.227169 39.9862-0.227169-0.0138583 324.773-0.0138583 324.773 39.9862" fill="#FFFFFF" fill-rule="evenodd" transform="matrix(1 0 0 -1 477 619)"/><path d="M30.6848 25.9862 13.3518-0.0138469 10.7832 13.979-0.315291 22.8248Z" stroke="#1F160F" stroke-width="1.33333" stroke-linecap="round" stroke-linejoin="round" stroke-miterlimit="10" fill="none" fill-rule="evenodd" transform="matrix(1 0 0 -1 755.5 612.5)"/><path d="M19.6795 11.98-0.320632-0.0200241" stroke="#1F160F" stroke-width="1.33333" stroke-linecap="round" stroke-linejoin="round" stroke-miterlimit="10" fill="none" fill-rule="evenodd" transform="matrix(1 0 0 -1 766.5 598.5)"/><path d="M15.3659-0.0137207 15.3579-0.0137207C-12.6511 9.60191 3.58223 35.1273 15.3659 20.6288 27.1414 35.1273 43.3748 9.60191 15.3659-0.0137207" fill="#A35530" fill-rule="evenodd" transform="matrix(1 0 0 -1 493 612)"/><path d="M11.3633-0.0532108 11.3579-0.0532108C-9.42269 7.25501 2.62086 26.6536 11.3633 15.6354 20.1004 26.6536 32.1452 7.25501 11.3633-0.0532108" fill="#D1795C" fill-rule="evenodd" transform="matrix(1 0 0 -1 497 566)"/><path d="M8.36333-0.0836536 8.35794-0.0836536C-7.00027 5.30034 1.90041 19.5953 8.36333 11.4765 14.8208 19.5953 23.7228 5.30034 8.36333-0.0836536" fill="#D1795C" fill-rule="evenodd" transform="matrix(1 0 0 -1 500 530)"/><path d="M5.36247-0.108142 5.35983-0.108142C-4.57875 3.35305 1.18093 12.5423 5.36247 7.32364 9.54138 12.5423 15.3011 3.35305 5.36247-0.108142" fill="#D1795C" fill-rule="evenodd" transform="matrix(1 0 0 -1 503 499)"/><path d="M324.773-0.29764-0.227169-0.29764-0.227169 13.7025 324.773 13.7025 324.773-0.29764" fill="#A35530" fill-rule="evenodd" transform="matrix(1 0 0 -1 477 304)"/><path d="M324.773-0.169001-0.227169-0.169001-0.227169 12.8311 324.773 12.8311 324.773-0.169001" fill="#A35530" fill-rule="evenodd" transform="matrix(1 0 0 -1 477 427)"/><path d="M351.773 93.6102-0.227402 93.6102-0.227402 6.75152C8.69796 2.17724 18.6753-0.389779 29.2019-0.389779 48.2033-0.389779 65.4233 7.95849 77.8686 21.4195 90.3126 7.95849 107.534-0.389779 126.535-0.389779 145.537-0.389779 162.757 7.95849 175.202 21.4195 187.646 7.95849 204.867-0.389779 223.869-0.389779 242.87-0.389779 260.09 7.95849 272.535 21.4195 284.981 7.95849 302.201-0.389779 321.202-0.389779 332.182-0.389779 342.559 2.41088 351.773 7.36109L351.773 93.6102" fill="#144E5A" fill-rule="evenodd" transform="matrix(1 0 0 -1 464 228)"/><path d="M388.773-0.432175-0.226787-0.432175 31.7285 52.5679 356.818 52.5679 388.773-0.432175" fill="#F2F2F2" fill-rule="evenodd" transform="matrix(1 0 0 -1 445 154)"/><path d="M80.7913 52.5679-0.320211 52.5679 15.6327-0.432175 112.68-0.432175 80.7913 52.5679" fill="#F2F2F2" fill-rule="evenodd" transform="matrix(1 0 0 -1 721 154)"/><path d="M31.7562 52.5679 112.868 52.5679 96.9147-0.432175-0.132418-0.432175 31.7562 52.5679" fill="#144E5A" fill-rule="evenodd" transform="matrix(1 0 0 -1 445 154)"/><path d="M-0.126913 53.6083C-0.126913 23.7856 21.5878-0.391799 48.3731-0.391799 75.1598-0.391799 96.8732 23.7856 96.8732 53.6083L-0.126913 53.6083" fill="#144E5A" fill-rule="evenodd" transform="matrix(1 0 0 -1 445 208)"/><path d="M-0.193142 53.6083C-0.193142 23.7856 21.5216-0.391799 48.3069-0.391799 75.0935-0.391799 96.807 23.7856 96.807 53.6083L-0.193142 53.6083" fill="#FFFFFF" fill-rule="evenodd" transform="matrix(1 0 0 -1 542 208)"/><path d="M-0.262045 53.6083C-0.262045 23.7856 21.6766-0.391799 48.738-0.391799 75.8009-0.391799 97.7381 23.7856 97.7381 53.6083L-0.262045 53.6083" fill="#144E5A" fill-rule="evenodd" transform="matrix(1 0 0 -1 639 208)"/><path d="M81.6284 52.5679-0.262045 52.5679-0.262045-0.432175 97.7381-0.432175 81.6284 52.5679" fill="#144E5A" fill-rule="evenodd" transform="matrix(1 0 0 -1 639 154)"/><path d="M-0.325496 53.6083C-0.325496 23.7856 21.3892-0.391799 48.1746-0.391799 74.9612-0.391799 96.6746 23.7856 96.6746 53.6083L-0.325496 53.6083" fill="#FFFFFF" fill-rule="evenodd" transform="matrix(1 0 0 -1 737 208)"/><path d="M-0.226787-0.410919 388.773-0.410919" stroke="#144E5A" stroke-width="1.33333" stroke-linecap="round" stroke-linejoin="round" stroke-miterlimit="10" fill="none" fill-rule="evenodd" transform="matrix(1 0 0 -1 445.5 155.5)"/><path d="M-0.16609-0.432164 15.834 52.5679" stroke="#1F160F" stroke-width="1.33333" stroke-linecap="round" stroke-linejoin="round" stroke-miterlimit="10" fill="none" fill-rule="evenodd" transform="matrix(1 0 0 -1 542.5 154.5)"/><path d="M15.7121-0.432164-0.287981 52.5679" stroke="#1F160F" stroke-width="1.33333" stroke-linecap="round" stroke-linejoin="round" stroke-miterlimit="10" fill="none" fill-rule="evenodd" transform="matrix(1 0 0 -1 721.5 154.5)"/><path d="M-0.226982-0.432164-0.226982 52.5679" stroke="#1F160F" stroke-width="1.33333" stroke-linecap="round" stroke-linejoin="round" stroke-miterlimit="10" fill="none" fill-rule="evenodd" transform="matrix(1 0 0 -1 639.5 154.5)"/><path d="M3.08086-0.161063 44.7874 3.46097 41.4925 40.839-0.212683 37.217 3.08086-0.161063" fill="#D1795C" fill-rule="evenodd" transform="matrix(1 0 0 -1 595 454)"/><path d="M0.987231 2.37449-0.212878 15.3619 41.7379 18.8365C42.7741 7.62582 27.4147-5.86096 0.987231 2.37449" fill="#1F160F" fill-rule="evenodd" transform="matrix(1 0 0 -1 595 432)"/><path d="M33.9076 71.3093C33.9076 71.3093 31.3027 74.0539 32.7617 75.5505 34.9573 77.8007 58.9547 77.5774 65.766 69.2279 98.175 72.7447 83.4658 6.14271 83.4658 6.14271L11.0827-0.233066C1.64796 16.3702 3.87653 41.9146 3.87529 41.9146-8.28326 48.4219 8.20706 68.2071 33.9076 71.3093" fill="#1F160F" fill-rule="evenodd" transform="matrix(1 0 0 -1 565 391)"/><path d="M0.0481154 39.6189C2.7357 8.72418 14.2216-1.89891 35.8906 0.00816782 57.5385 1.91117 67.0351 14.3803 64.3475 45.2749 61.6612 76.1456 40.7606 84.7766 28.6081 83.7073 16.4331 82.6368-2.63822 70.4883 0.0481154 39.6189" fill="#D1795C" fill-rule="evenodd" transform="matrix(1 0 0 -1 581 425)"/><path d="M15.7887 1.47454C10.7576-1.37374 2.94275-0.552887-0.211322 3.80869" stroke="#1F160F" stroke-width="1.33333" stroke-linecap="round" stroke-linejoin="round" stroke-miterlimit="10" fill="none" fill-rule="evenodd" transform="matrix(1 0 0 -1 604.5 407.5)"/><path d="M1.37881 15.7905C1.86756 10.2976 5.56297 5.23182 5.76786 3.80905 5.9713 2.38628 2.72081-1.00162-0.223129-0.0405102" stroke="#1F160F" stroke-width="1.33333" stroke-linecap="round" stroke-linejoin="round" stroke-miterlimit="10" fill="none" fill-rule="evenodd" transform="matrix(1 0 0 -1 612.5 397.5)"/><path d="M4.74471 3.49218C4.92457 1.56279 3.96095-0.0929727 2.59184-0.205702 1.22263-0.318432-0.0322631 1.15487-0.212127 3.08426-0.391992 5.01514 0.571631 6.67079 1.94085 6.78215 3.30995 6.89488 4.56484 5.42168 4.74471 3.49218" fill="#1F160F" fill-rule="evenodd" transform="matrix(1 0 0 -1 624 382)"/><path d="M-0.154648 3.08638C-0.0106995 1.15688 0.994066-0.316319 2.08919-0.203695 3.18315-0.0923388 3.95504 1.56479 3.81119 3.49429 3.66724 5.42369 2.66355 6.89699 1.56851 6.78426 0.473386 6.67153-0.297339 5.01577-0.154648 3.08638" fill="#1F160F" fill-rule="evenodd" transform="matrix(1 0 0 -1 598 385)"/><path d="M9.80421 3.77365C6.16636 3.88953 1.91744 2.78442-0.19579-0.218284" stroke="#1F160F" stroke-width="3.33333" stroke-linecap="round" stroke-linejoin="round" stroke-miterlimit="10" fill="none" fill-rule="evenodd" transform="matrix(1 0 0 -1 593.5 375.5)"/><path d="M-0.225622 1.53767C3.49833 2.14466 8.06843 1.88148 10.7744-0.17605" stroke="#1F160F" stroke-width="3.33333" stroke-linecap="round" stroke-linejoin="round" stroke-miterlimit="10" fill="none" fill-rule="evenodd" transform="matrix(1 0 0 -1 622.5 371.5)"/><path d="M-0.17723 18.4648C0.103655 28.7588 6.83345 32.1191 14.8531 25.0628L16.8164 2.33049C8.44005-6.04803-0.458009 8.1723-0.17723 18.4648" fill="#D1795C" fill-rule="evenodd" transform="matrix(1 0 0 -1 568 403)"/><path d="M8.81383 1.57637C5.88416 4.68977 0.875558 4.93092-0.186273-0.192457" stroke="#1F160F" stroke-width="1.33333" stroke-linecap="round" stroke-linejoin="round" stroke-miterlimit="10" fill="none" fill-rule="evenodd" transform="matrix(1 0 0 -1 571.5 384.5)"/><path d="M15.3938 19.94C13.3916 29.8369 6.3274 31.9223-0.230325 23.7207L1.69501 1.41861C11.1935-5.23043 17.3961 10.0432 15.3938 19.94" fill="#D1795C" fill-rule="evenodd" transform="matrix(1 0 0 -1 643 397)"/><path d="M-0.233374 0.136918C2.01077 4.39818 6.79128 5.64595 8.76673-0.239283" stroke="#1F160F" stroke-width="1.33333" stroke-linecap="round" stroke-linejoin="round" stroke-miterlimit="10" fill="none" fill-rule="evenodd" transform="matrix(1 0 0 -1 647.5 377.5)"/><path d="M29.1307 49.6119C61.0491 52.3862 64.1798 18.2315 64.6721 12.6429 65.3279 5.18993 63.0437 1.82119 62.8532 3.99189 61.3656 20.8741 51.4599 22.9994 46.5398 33.7918 36.4932 23.5764 19.6354 24.7944 11.0561 23.4259 8.44186 18.4634 3.3394 7.10209 3.87065 1.0736 3.71233-2.17248 2.38441 0.959018 0.58966 7.06882-1.20372 13.1772-2.78913 46.8374 29.1307 49.6119" fill="#1F160F" fill-rule="evenodd" transform="matrix(1 0 0 -1 580 384)"/><path d="M62.6372 145.162C45.0188 140.953 25.3487 122.02 19.3223 112.42 13.2959 102.821-0.219333 49.0387-0.219333 49.0387L21.0056-0.0972583 154.32-0.0972583 148.89 53.5229C169.982 57.8487 182.781 68.7657 182.781 68.7657 182.781 68.7657 159.603 124.088 147.856 133.155 137.952 140.799 98.5519 146.903 98.5519 146.903L62.6372 145.162" fill="#144E5A" fill-rule="evenodd" transform="matrix(1 0 0 -1 535 579)"/><path d="M29.8376 140.926C40.3846 112.225 43.6942 85.1646 43.6942 85.1646 69.3668 93.0683 99.3052 91.749 99.3052 91.749 100.618 123.399 93.4987 143.904 93.4987 143.904 100.549 143.201 104.027 141.452 104.027 141.452 113.19 116.597 113.936 86.1134 113.936 86.1134 116.92 77.5899 126.408 53.5893 126.408 53.5893L131.785-0.0959072-0.214665-0.0959072 17.8427 38.0135 21.5435 52.8283C28.6164 62.751 30.4396 79.742 30.4396 79.742 30.2739 104.229 19.3437 134.192 19.3437 134.192 23.7791 137.805 29.8376 140.926 29.8376 140.926" fill="#FFFFFF" fill-rule="evenodd" transform="matrix(1 0 0 -1 557 579)"/><path d="M-0.181674-0.0815392 8.81833 36.9186" stroke="#1F160F" stroke-width="1.33333" stroke-linecap="round" stroke-linejoin="round" stroke-miterlimit="10" fill="none" fill-rule="evenodd" transform="matrix(1 0 0 -1 575.5 541.5)"/><path d="M-0.211959 25.9592C5.41248 7.33295 19.61-2.05318 33.4498 0.163361 44.4141 1.9196 55.788 12.6003 55.788 28.5081 55.788 28.5081 51.6917 30.5508 43.5989 30.7996 33.4617 31.1111 18.0407 29.6956 7.93148 28.9809 4.14901 28.7125-0.211959 25.9592-0.211959 25.9592" fill="#D1795C" fill-rule="evenodd" transform="matrix(1 0 0 -1 590 462)"/><path d="M-0.225937 30.2638C28.254 34.4314 61.764 35.9318 61.764 35.9318 61.764 35.9318 63.0546 4.62268 36.5051 0.422888 4.88916-4.57826-0.225937 30.2638-0.225937 30.2638Z" stroke="#1F160F" stroke-width="1.33333" stroke-linecap="round" stroke-linejoin="round" stroke-miterlimit="10" fill="none" fill-rule="evenodd" transform="matrix(1 0 0 -1 603.5 556.5)"/><path d="M33.2397 50.1094 38.7787 38.0039 91.7128 85.913 88.3094 51.5092C88.3094 51.5092 45.6187-6.96135 23.8905 0.585397 10.3762 5.27909-0.287285 34.8128-0.287285 34.8128 18.9225 39.9954 33.2397 50.1094 33.2397 50.1094" fill="#D1795C" fill-rule="evenodd" transform="matrix(1 0 0 -1 684 560)"/><path d="M8.72595 18.9251C0.700683 12.0725-0.274051-0.075032-0.274051-0.075032" stroke="#1F160F" stroke-width="1.33333" stroke-linecap="round" stroke-linejoin="round" stroke-miterlimit="10" fill="none" fill-rule="evenodd" transform="matrix(1 0 0 -1 714.5 541.5)"/><path d="M140.278 63.3641C144.347 102.357 116.257 137.291 77.5376 141.39 38.818 145.488 4.13132 117.199 0.0611096 78.205-4.00774 39.2108 24.0815 4.27813 62.8012 0.179053 101.521-3.91866 136.208 24.3698 140.278 63.3641" fill="#144E5A" fill-rule="evenodd" transform="matrix(1 0 0 -1 723 445)"/><path d="M15.793-0.116203-0.328577 1.55255 11.5499 112.884 27.6714 111.215 15.793-0.116203" fill="#144E5A" fill-rule="evenodd" transform="matrix(1 0 0 -1 768 541)"/><path d="M30.1487 20.1598C29.146 20.7143 21.1941 23.4537 18.8759 22.7688 13.0589 21.0482 9.86232 17.9883 6.68721 15.2555 2.53477 11.6811-0.320965-0.121984-0.320965-0.121984L13.718 7.89126C13.718 7.89126 17.6846 14.0095 19.1887 14.5082 20.6927 15.0069 21.5483 15.467 24.388 15.2662 31.4375 14.7675 31.1514 19.6053 30.1487 20.1598" fill="#D1795C" fill-rule="evenodd" transform="matrix(1 0 0 -1 760 489)"/><path d="M14.4796 30.8112C14.4796 30.8112 6.26097 29.2474 3.93987 27.3916 1.61888 25.5358 3.31473 21.5217 3.31473 21.5217 3.31473 21.5217 0.108017 21.1311-0.314696 17.3489-0.565815 15.1039 2.04957 12.8816 2.04957 12.8816 2.04957 12.8816 0.156604 12.1336 0.0282801 9.26061-0.101319 6.38635 1.95505 5.36654 1.95505 5.36654 1.95505 5.36654-0.303852 4.14402 1.33129 1.22839 2.96771-1.68723 12.1262 0.705839 15.0346 3.24146 17.0897 5.03325 15.9217 8.65807 15.9217 8.65807 15.9217 8.65807 17.3975 10.5925 17.3975 13.2815 17.3975 15.9904 15.8367 16.9477 15.8367 16.9477 15.8367 16.9477 19.7604 19.698 16.4699 23.9468 20.1411 25.5305 19.0367 31.655 14.4796 30.8112" fill="#D1795C" fill-rule="evenodd" transform="matrix(1 0 0 -1 777 507)"/><path d="M14.1358 29.8938C14.1358 29.8938 6.11289 28.3766 3.84722 26.5761 1.58154 24.7755 3.23698 20.881 3.23698 20.881 3.23698 20.881 0.106585 20.502-0.305951 16.8324-0.551085 14.6542 2.00197 12.498 2.00197 12.498 2.00197 12.498 0.154117 11.7724 0.0288515 8.98499-0.0976594 6.1963 1.9097 5.20675 1.9097 5.20675 1.9097 5.20675-0.295365 4.02063 1.30081 1.19182 2.89823-1.63699 11.8385 0.684823 14.6775 3.14495" stroke="#1F160F" stroke-width="1.33333" stroke-linecap="round" stroke-linejoin="round" stroke-miterlimit="10" fill="none" fill-rule="evenodd" transform="matrix(1 0 0 -1 777.5 507.5)"/><path d="M-0.328215-0.14363 12.6718 2.85637" stroke="#1F160F" stroke-width="1.33333" stroke-linecap="round" stroke-linejoin="round" stroke-miterlimit="10" fill="none" fill-rule="evenodd" transform="matrix(1 0 0 -1 781.5 486.5)"/><path d="M13.6635 3.89281-0.336616-0.107296" stroke="#1F160F" stroke-width="1.33333" stroke-linecap="round" stroke-linejoin="round" stroke-miterlimit="10" fill="none" fill-rule="evenodd" transform="matrix(1 0 0 -1 779.5 494.5)"/><path d="M13.6678 2.907C7.74642 1.34931-0.332288-0.0929966-0.332288-0.0929966" stroke="#1F160F" stroke-width="1.33333" stroke-linecap="round" stroke-linejoin="round" stroke-miterlimit="10" fill="none" fill-rule="evenodd" transform="matrix(1 0 0 -1 779.5 502.5)"/><path d="M54.7392 0.125316C21.0163 3.66953-3.53623 33.9895 0.0080815 67.7138 3.55229 101.437 33.8723 125.989 67.5966 122.445 101.32 118.901 125.872 88.5793 122.328 54.8564 118.783 21.1334 88.4622-3.419 54.7392 0.125316Z" stroke="#FFDB5E" stroke-width="1.33333" stroke-linecap="round" stroke-linejoin="round" stroke-miterlimit="10" fill="none" fill-rule="evenodd" transform="matrix(1 0 0 -1 732.5 435.5)"/><path d="M-0.34562 8.70848C7.73124 4.2179 16.8175 1.24705 26.5736 0.215501 65.5953-3.90931 100.553 24.5662 104.654 63.8184" stroke="#FFDB5E" stroke-width="1.33333" stroke-linecap="round" stroke-linejoin="round" stroke-miterlimit="10" fill="none" fill-rule="evenodd" transform="matrix(1 0 0 -1 759.5 445.5)"/><path d="M4.38419 90.9652C-0.00600185 72.1693-2.96934 51.0176 3.83855 42.4077 10.7683 33.6435 47.3703 26.7055 50.4339 25.5313 53.4975 24.3582 61.5492 18.423 65.1852 15.3066 68.8211 12.1886 71.9129 3.57237 73.9188 2.44962 75.9247 1.32824 78.6834 2.20067 78.3076 4.32101 77.9306 6.43999 76.2175 11.0662 76.2175 11.0662 76.2175 11.0662 80.4566 0.0926896 83.9067-0.0310013 87.3568-0.156158 87.6951 2.80069 87.6951 2.80069 87.6951 2.80069 88.8384 0.132803 92.0973 1.25503 95.3576 2.37631 93.6018 5.41318 93.6018 5.41318 93.6018 5.41318 96.7564 3.49131 98.7422 6.66077 99.459 7.80582 94.5218 17.5506 92.6404 20.6681 90.7601 23.786 86.6026 26.6536 86.6026 26.6536 86.6026 26.6536 88.3478 25.9101 90.2373 24.9712 92.1268 24.0308 94.9363 22.734 96.862 23.2873 100.33 24.2849 96.0771 29.4058 93.6018 30.8316 90.593 32.5648 84.5392 36.3983 72.6858 38.875 69.7318 39.4924 38.3932 54.3628 38.5189 56.1097 38.6433 57.8543 43.7891 79.8999 43.7891 79.8999 32.3809 88.6294 4.38419 90.9652 4.38419 90.9652" fill="#D1795C" fill-rule="evenodd" transform="matrix(1 0 0 -1 531 621)"/><path d="M9.80136-0.00759215C9.80136-0.00759215 8.0417 8.22937 6.4162 11.3633 5.16106 13.7818-0.198736 18.9925-0.198736 18.9925" stroke="#1F160F" stroke-width="1.33333" stroke-linecap="round" stroke-linejoin="round" stroke-miterlimit="10" fill="none" fill-rule="evenodd" transform="matrix(1 0 0 -1 614.5 616.5)"/><path d="M8.80964-0.0048772C8.80964-0.0048772 6.56904 8.92222 5.60446 10.8579 4.63864 12.7935-0.190359 17.9951-0.190359 17.9951" stroke="#1F160F" stroke-width="1.33333" stroke-linecap="round" stroke-linejoin="round" stroke-miterlimit="10" fill="none" fill-rule="evenodd" transform="matrix(1 0 0 -1 609.5 618.5)"/><path d="M5.78661-0.004563C4.02541 6.49533-0.213495 12.9954-0.213495 12.9954" stroke="#1F160F" stroke-width="1.33333" stroke-linecap="round" stroke-linejoin="round" stroke-miterlimit="10" fill="none" fill-rule="evenodd" transform="matrix(1 0 0 -1 603.5 616.5)"/><path d="M19.7932-0.0127377C19.7932-0.0127377 15.9563 9.19494 13.7297 12.613 11.5045 16.0315-0.206917 23.9874-0.206917 23.9874" stroke="#1F160F" stroke-width="1.33333" stroke-linecap="round" stroke-linejoin="round" stroke-miterlimit="10" fill="none" fill-rule="evenodd" transform="matrix(1 0 0 -1 609.5 612.5)"/><path d="M15.8289-0.0441582C7.82877 2.66472-0.171234 1.83666-0.171234 1.83666" stroke="#1F160F" stroke-width="1.33333" stroke-linecap="round" stroke-linejoin="round" stroke-miterlimit="10" fill="none" fill-rule="evenodd" transform="matrix(1 0 0 -1 553.5 565.5)"/><path d="M801.099 360.047 793.629 358.045C793.54 358.021 793.483 357.94 793.503 357.865 793.523 357.791 793.612 357.749 793.702 357.773L801.172 359.774C801.261 359.798 801.318 359.879 801.298 359.954 801.277 360.029 801.188 360.07 801.099 360.047ZM803.777 361.456 790.604 357.927C790.282 357.84 790.007 357.653 789.83 357.398 789.654 357.146 789.596 356.859 789.668 356.592L790.215 354.552C790.287 354.282 790.481 354.062 790.759 353.931 791.038 353.802 791.37 353.778 791.693 353.865 792.017 353.951 792.29 354.138 792.468 354.389 792.644 354.641 792.702 354.928 792.629 355.199L792.263 356.567 803.02 359.45 803.387 358.082C803.459 357.811 803.653 357.591 803.931 357.461 804.21 357.331 804.542 357.307 804.865 357.394 805.188 357.481 805.462 357.667 805.64 357.919 805.816 358.17 805.874 358.458 805.801 358.728L805.255 360.768C805.182 361.038 804.988 361.258 804.71 361.389 804.432 361.52 804.1 361.543 803.777 361.456" fill="url(#fill0)" fill-rule="evenodd"/><path d="M792.179 359.37 791.737 359.251C791.334 359.143 791.08 358.777 791.171 358.434L791.299 357.959C791.319 357.884 791.41 357.841 791.5 357.866L793.077 358.288C793.167 358.312 793.225 358.394 793.205 358.47L793.077 358.945C792.985 359.287 792.582 359.478 792.179 359.37" fill="url(#fill1)" fill-rule="evenodd"/><path d="M802.135 362.038 801.692 361.919C801.29 361.811 801.035 361.444 801.127 361.102L801.254 360.627C801.275 360.551 801.366 360.509 801.456 360.533L803.032 360.956C803.123 360.98 803.181 361.062 803.16 361.138L803.033 361.612C802.941 361.954 802.538 362.145 802.135 362.038" fill="url(#fill2)" fill-rule="evenodd"/><path d="M801.127 355.983 795.636 354.511C795.52 354.671 795.286 354.746 795.052 354.683 794.767 354.607 794.587 354.346 794.652 354.103 794.718 353.859 795.003 353.723 795.289 353.8 795.524 353.863 795.688 354.044 795.709 354.24L801.199 355.711C801.316 355.552 801.549 355.477 801.783 355.54 802.068 355.616 802.248 355.877 802.183 356.12 802.117 356.364 801.832 356.5 801.547 356.423 801.312 356.36 801.148 356.178 801.127 355.983ZM801.711 355.811C801.597 355.781 801.488 355.831 801.463 355.927 801.437 356.022 801.506 356.12 801.62 356.151 801.725 356.179 801.834 356.124 801.858 356.033 801.883 355.941 801.816 355.839 801.711 355.811ZM795.216 354.071C795.112 354.043 795.003 354.097 794.978 354.189 794.953 354.281 795.021 354.383 795.125 354.41 795.239 354.441 795.348 354.39 795.373 354.295 795.399 354.2 795.33 354.101 795.216 354.071ZM792.595 354.072C792.782 353.592 793.163 353.199 793.686 352.955 794.28 352.677 794.982 352.624 795.663 352.807L801.956 354.493C802.637 354.675 803.219 355.072 803.594 355.61 803.925 356.083 804.058 356.613 803.98 357.123 803.903 357.145 803.827 357.174 803.754 357.208 803.424 357.362 803.188 357.616 803.083 357.928L792.97 355.218C793.035 354.896 792.958 354.556 792.748 354.259 792.703 354.193 792.651 354.131 792.595 354.072" fill="url(#fill3)" fill-rule="evenodd"/><path d="M792.9 355.49 803.007 358.199 802.768 359.091 792.661 356.383 792.9 355.49" fill="url(#fill4)" fill-rule="evenodd"/><path d="M6.89881 39.2728C5.81602 39.0562 4.67139 37.7569 4.26922 36.2719 4.05265 35.4367 3.71235 34.8489 3.46486 34.8489 2.66053 34.8489 0.6806 33.5496 0.3403 32.7761-0.247489 31.4768-0.0309452 29.7444 1.05184 26.9292 2.3821 23.4953 2.90802 20.6801 2.62959 18.4527 2.53678 17.5246 1.88712 15.1115 1.20652 13.1316 0.556843 11.1517 0 8.95522 0 8.27463 0 6.72781 1.14466 5.30474 2.78427 4.80977 3.80516 4.50039 3.99079 4.28385 4.17641 3.35576 4.30014 2.73703 4.82606 1.80894 5.38293 1.2521 6.806-0.17099 8.22906-0.294722 14.1379 0.447743L19.0258 1.0974 13.3954 0.911799C7.17722 0.726176 6.34194 0.880853 5.47572 2.33486 4.64044 3.72698 4.79514 4.43852 6.00164 4.84069 7.30097 5.2738 8.29093 6.2947 8.53842 7.53216 8.69312 8.27463 8.60031 8.58398 8.04344 8.95522 6.65132 9.91423 5.22823 8.70774 4.23828 5.70691 4.0836 5.2738 3.86703 5.24288 3.0627 5.45942 0.402166 6.23283 0.185623 7.56308 1.88712 12.4201 3.09364 15.9159 3.18643 16.349 3.21738 19.6901 3.24832 23.1859 3.21738 23.3096 1.94899 26.6198 1.20652 28.476 0.618734 30.4559 0.618734 30.9818 0.618734 32.2193 1.3612 33.2711 2.66053 33.7971 4.05265 34.3848 4.33109 34.3539 4.33109 33.5805 4.33109 32.1884 5.90883 30.2084 7.02254 30.2084 7.98157 30.2084 8.75498 31.4459 8.38374 32.4049 8.01252 33.3949 6.83692 34.4467 5.81602 34.6942 4.82606 34.9417 4.70233 35.6532 5.41385 36.9835 6.24913 38.5922 10.905 38.1874 15.4063 38.3137L32.4217 37.7415C34.3397 37.8034 26.8578 38.2479 23.8982 38.4567 20.9386 38.6655 17.497 38.8583 14.6638 38.9943 11.8306 39.1303 8.29093 39.5512 6.89881 39.2728ZM7.08441 33.2711C7.61033 32.7452 8.04344 32.2193 8.04344 32.0646 8.04344 30.5178 6.49662 30.3941 5.59948 31.879 4.20733 34.1064 5.29012 35.0964 7.08441 33.2711ZM7.67222 8.49117C7.88876 8.27463 8.04344 7.90338 8.04344 7.62495 8.04344 7.00624 6.58943 5.6141 5.66134 5.30474 5.07355 5.15007 4.94982 5.24288 4.94982 5.76878 4.94982 6.635 5.75415 8.15087 6.40383 8.52211 7.11535 8.92428 7.23911 8.92428 7.67222 8.49117Z" fill="url(#fill5)" fill-rule="evenodd" transform="matrix(0.965926 0.258819 0.258819 -0.965926 741.711 380.896)"/><path d="M838.135 366.075C839.125 366.564 839.894 368.115 839.898 369.654 839.891 370.517 840.068 371.172 840.307 371.236 841.084 371.445 842.66 373.212 842.789 374.047 843.02 375.454 842.363 377.072 840.588 379.511 838.414 382.483 837.178 385.067 836.87 387.29 836.72 388.211 836.723 390.71 836.868 392.798 836.983 394.879 836.952 397.145 836.776 397.802 836.376 399.296 834.902 400.374 833.19 400.428 832.124 400.463 831.888 400.624 831.469 401.472 831.189 402.038 830.441 402.798 829.759 403.192 828.016 404.198 826.609 403.949 821.094 401.703L816.541 399.81 821.931 401.447C827.89 403.236 828.736 403.302 829.95 402.122 831.117 400.994 831.151 400.266 830.09 399.566 828.947 398.811 828.255 397.569 828.336 396.309 828.379 395.552 828.549 395.277 829.183 395.063 830.776 394.497 831.838 396.03 832.018 399.185 832.055 399.644 832.256 399.73 833.089 399.729 835.859 399.67 836.413 398.441 836.026 393.309 835.765 389.62 835.788 389.178 836.623 385.943 837.498 382.558 837.56 382.447 839.641 379.577 840.839 377.977 841.919 376.216 842.055 375.708 842.376 374.513 841.931 373.305 840.812 372.461 839.619 371.533 839.342 371.49 839.142 372.237 838.782 373.582 836.745 375.086 835.67 374.798 834.743 374.55 834.316 373.154 834.923 372.324 835.538 371.464 836.946 370.752 837.996 370.777 839.016 370.794 839.32 370.139 838.977 368.67 838.587 366.9 833.985 366.086 829.669 364.799L813.086 360.948C811.249 360.392 818.591 361.899 821.504 362.463 824.417 363.027 827.791 363.732 830.563 364.334 833.335 364.936 836.862 365.445 838.135 366.075ZM836.403 371.824C835.758 372.195 835.204 372.591 835.164 372.741 834.764 374.235 836.226 374.755 837.477 373.553 839.398 371.761 838.608 370.525 836.403 371.824ZM829.421 395.607C829.156 395.76 828.911 396.079 828.838 396.348 828.678 396.945 829.722 398.666 830.539 399.205 831.067 399.507 831.21 399.449 831.346 398.941 831.57 398.105 831.186 396.432 830.654 395.905 830.071 395.333 829.952 395.301 829.421 395.607Z" fill="url(#fill6)" fill-rule="evenodd"/><path d="M822.393 382.035 821.629 383.754 822.195 384.127C822.411 384.268 822.604 384.299 822.772 384.222 822.939 384.145 823.083 383.971 823.203 383.7L823.221 383.659C823.345 383.385 823.385 383.143 823.341 382.933 823.297 382.723 823.156 382.539 822.919 382.382ZM828.627 383.44 826.698 385.637 827.653 386.508ZM759.543 364.872C759.405 364.765 759.203 364.743 758.936 364.807L758.397 364.931 758.368 366.809 758.9 366.687C759.454 366.56 759.735 366.18 759.743 365.547L759.744 365.503C759.747 365.189 759.681 364.979 759.543 364.872ZM760.032 363.037C760.32 363.074 760.562 363.172 760.759 363.333 761.153 363.654 761.346 364.227 761.336 365.05L761.336 365.093C761.322 365.648 761.218 366.112 761.023 366.485 760.829 366.859 760.577 367.159 760.268 367.383L761.593 370.297 759.857 370.696 758.733 368.171 758.346 368.259 758.304 371.053 756.664 371.43 756.783 363.629 759.034 363.111C759.412 363.025 759.745 363 760.032 363.037ZM828.776 381.191 830.388 382.661 828.005 390.767 826.685 389.563 827.154 388.079 825.713 386.765 824.782 387.828 823.62 386.768ZM823.625 379.261 822.956 380.766 823.476 381.109C823.686 381.249 823.864 381.29 824.008 381.23 824.152 381.171 824.28 381.012 824.392 380.752L824.41 380.712C824.522 380.465 824.557 380.252 824.516 380.073 824.474 379.894 824.351 379.737 824.145 379.603ZM818.737 376.597C818.381 376.413 818.032 376.45 817.69 376.707 817.348 376.965 817.043 377.434 816.775 378.114L816.742 378.197C816.482 378.883 816.383 379.465 816.445 379.944 816.508 380.422 816.712 380.756 817.06 380.945 817.417 381.127 817.769 381.082 818.116 380.812 818.463 380.541 818.769 380.07 819.034 379.397L819.067 379.314C819.322 378.644 819.419 378.072 819.358 377.598 819.297 377.124 819.09 376.79 818.737 376.597ZM822.908 377.003 825.032 378.403C825.587 378.78 825.917 379.224 826.021 379.736 826.126 380.247 826.049 380.789 825.791 381.359L825.773 381.4C825.592 381.807 825.375 382.099 825.122 382.274 824.87 382.449 824.587 382.502 824.273 382.434 824.536 382.704 824.689 383.032 824.733 383.421 824.778 383.809 824.69 384.255 824.47 384.758L824.452 384.799C824.163 385.453 823.8 385.86 823.363 386.018 822.925 386.177 822.412 386.064 821.823 385.68L819.68 384.268ZM767.804 362.118 767.312 366.785C767.184 367.932 766.867 368.795 766.363 369.374 765.858 369.953 765.21 370.265 764.419 370.309 763.611 370.357 763.019 370.114 762.643 369.582 762.268 369.049 762.136 368.229 762.248 367.123L762.742 362.423 764.373 362.325 763.889 366.925C763.824 367.483 763.842 367.896 763.944 368.162 764.045 368.429 764.266 368.551 764.606 368.53 764.939 368.514 765.187 368.365 765.348 368.086 765.51 367.806 765.62 367.372 765.676 366.785L766.157 362.218ZM812.808 373.751C812.441 373.594 812.091 373.656 811.756 373.936 811.421 374.215 811.131 374.701 810.887 375.393L810.857 375.478C810.622 376.175 810.544 376.758 810.625 377.226 810.707 377.695 810.926 378.01 811.284 378.172 811.651 378.325 812.004 378.255 812.344 377.963 812.683 377.67 812.974 377.181 813.215 376.497L813.245 376.412C813.476 375.731 813.552 375.158 813.473 374.694 813.393 374.23 813.171 373.915 812.808 373.751ZM819.384 374.928C819.893 375.201 820.286 375.593 820.564 376.102 820.842 376.612 820.986 377.206 820.996 377.884 821.005 378.562 820.862 379.291 820.566 380.069L820.533 380.153C820.071 381.313 819.468 382.116 818.725 382.561 817.982 383.007 817.201 383.023 816.381 382.61 815.845 382.32 815.445 381.912 815.181 381.386 814.917 380.86 814.79 380.257 814.801 379.575 814.811 378.894 814.962 378.176 815.251 377.421L815.284 377.338C815.585 376.577 815.96 375.973 816.408 375.526 816.857 375.08 817.34 374.803 817.856 374.697 818.372 374.591 818.881 374.668 819.384 374.928ZM806.859 371.405 806.272 373.251 806.753 373.431C807.255 373.62 807.604 373.402 807.801 372.779L807.815 372.736C807.912 372.427 807.919 372.181 807.836 371.996 807.753 371.812 807.59 371.676 807.348 371.588ZM801.918 369.839 800.459 372.624 801.619 372.999ZM790.368 366.69 789.025 369.564 790.214 369.832ZM774.147 362.313 771.52 365.912 773.036 370.227 771.173 370.16 770.064 366.795 769.554 370.102 767.935 370.044 769.156 362.134 770.775 362.192 770.291 365.323 772.465 362.253ZM813.396 372.053C813.919 372.286 814.331 372.644 814.631 373.128 814.931 373.612 815.099 374.188 815.135 374.858 815.171 375.528 815.055 376.258 814.786 377.05L814.756 377.135C814.335 378.316 813.758 379.154 813.026 379.648 812.294 380.143 811.506 380.216 810.663 379.867 810.112 379.619 809.692 379.245 809.406 378.745 809.119 378.244 808.968 377.656 808.952 376.982 808.937 376.308 809.061 375.587 809.324 374.819L809.353 374.734C809.628 373.96 809.982 373.336 810.418 372.862 810.853 372.387 811.329 372.079 811.846 371.936 812.362 371.794 812.879 371.833 813.396 372.053ZM779.833 362.897 778.956 367.555C778.732 368.699 778.351 369.524 777.811 370.03 777.272 370.536 776.616 370.747 775.843 370.663 775.054 370.58 774.5 370.238 774.181 369.636 773.862 369.034 773.805 368.18 774.008 367.075L774.892 362.384 776.484 362.549 775.619 367.141C775.508 367.697 775.49 368.119 775.566 368.406 775.641 368.693 775.845 368.854 776.178 368.887 776.503 368.925 776.755 368.814 776.937 368.557 777.118 368.299 777.261 367.877 777.367 367.289L778.226 362.73ZM785.939 363.855 784.235 371.718 782.715 371.472 781.779 366.211 780.709 371.148 779.327 370.925 781.031 363.062 782.805 363.349 783.604 368.065 784.565 363.633ZM805.899 369.197 807.938 369.962C808.623 370.219 809.082 370.619 809.315 371.161 809.548 371.704 809.538 372.38 809.283 373.191L809.27 373.234C809.092 373.776 808.865 374.177 808.591 374.437 808.316 374.697 808.015 374.851 807.689 374.898L807.924 378.54 806.352 377.95 806.168 374.807 805.818 374.676 804.945 377.422 803.46 376.864ZM801.566 367.762 803.523 368.395 802.928 376.664 801.325 376.145 801.467 374.617 799.716 374.05 799.013 375.397 797.601 374.94ZM791.922 365.124 791.707 373.329 790.064 372.96 790.136 371.44 788.341 371.037 787.693 372.427 786.246 372.101 789.915 364.673ZM795.883 366.117 794.264 372.169 796.288 372.71 795.826 374.44 792.257 373.487 794.339 365.705Z" fill="url(#fill7)" fill-rule="evenodd"/><path d="M810.538 397.009 810.235 398.137 810.806 398.29C811.024 398.348 811.202 398.346 811.341 398.282 811.479 398.219 811.574 398.094 811.625 397.907L811.63 397.89C811.682 397.686 811.661 397.527 811.565 397.412 811.47 397.298 811.318 397.214 811.108 397.161ZM794.633 392.747 794.331 393.875 794.901 394.028C795.119 394.087 795.298 394.084 795.436 394.021 795.575 393.958 795.67 393.832 795.721 393.645L795.725 393.628C795.778 393.424 795.756 393.265 795.661 393.151 795.566 393.036 795.413 392.953 795.204 392.9ZM781.193 389.146 780.891 390.274 781.461 390.427C781.679 390.485 781.857 390.483 781.996 390.42 782.135 390.356 782.229 390.231 782.28 390.044L782.285 390.027C782.337 389.823 782.316 389.664 782.221 389.549 782.125 389.435 781.973 389.352 781.764 389.299ZM771.113 386.445 770.458 388.888 770.875 389C771.268 389.101 771.591 389.071 771.844 388.909 772.098 388.747 772.275 388.478 772.375 388.102L772.385 388.068C772.484 387.711 772.469 387.4 772.34 387.132 772.212 386.865 771.94 386.673 771.526 386.555ZM807.943 396.272C807.586 396.184 807.28 396.227 807.026 396.402 806.773 396.577 806.596 396.849 806.495 397.216L806.485 397.25C806.421 397.498 806.414 397.728 806.462 397.939 806.511 398.151 806.605 398.331 806.746 398.479 806.887 398.628 807.064 398.732 807.277 398.79 807.621 398.876 807.919 398.832 808.171 398.658 808.424 398.483 808.602 398.21 808.706 397.836L808.715 397.802C808.776 397.572 808.788 397.353 808.752 397.145 808.716 396.936 808.63 396.755 808.496 396.601 808.361 396.447 808.177 396.338 807.943 396.272ZM813.16 397.392 814.934 397.868 814.853 398.169 813.449 397.793 813.171 398.828 814.303 399.131 814.223 399.433 813.09 399.129 812.795 400.232 814.276 400.629 814.195 400.931 812.344 400.435ZM810.248 396.612 811.162 396.857C811.359 396.909 811.53 396.985 811.675 397.085 811.819 397.185 811.923 397.31 811.984 397.46 812.046 397.61 812.051 397.786 811.999 397.989L811.995 398.006C811.923 398.254 811.798 398.425 811.621 398.52 811.444 398.615 811.244 398.653 811.019 398.634L811.59 400.233 811.177 400.122 810.625 398.556 810.157 398.43 809.802 399.754 809.432 399.655ZM803.94 394.922 806.08 395.495 805.999 395.797 805.114 395.56 804.38 398.301 804.01 398.202 804.744 395.461 803.859 395.224ZM797.255 393.131 799.03 393.606 798.949 393.908 797.544 393.532 797.267 394.566 798.399 394.87 798.318 395.171 797.186 394.868 796.891 395.971 798.372 396.368 798.291 396.669 796.44 396.173ZM794.343 392.35 795.258 392.596C795.455 392.648 795.626 392.723 795.771 392.823 795.915 392.923 796.018 393.048 796.08 393.198 796.142 393.348 796.147 393.525 796.095 393.727L796.09 393.744C796.018 393.992 795.894 394.164 795.717 394.258 795.54 394.353 795.339 394.391 795.115 394.372L795.685 395.971 795.273 395.861 794.721 394.294 794.252 394.169 793.898 395.492 793.528 395.393ZM791.182 391.503 791.551 391.602 791.045 393.492C790.959 393.808 790.957 394.051 791.038 394.221 791.12 394.392 791.287 394.509 791.54 394.574 791.702 394.619 791.848 394.63 791.978 394.607 792.108 394.583 792.222 394.511 792.32 394.391 792.418 394.27 792.501 394.087 792.567 393.841L793.059 392.006 793.428 392.105 792.923 393.991C792.824 394.365 792.651 394.631 792.406 394.79 792.16 394.949 791.841 394.978 791.45 394.877 791.099 394.782 790.856 394.611 790.721 394.364 790.585 394.117 790.566 393.808 790.664 393.436ZM788.26 390.72 790.4 391.294 790.319 391.596 789.434 391.358 788.699 394.099 788.33 394 789.064 391.259 788.179 391.022ZM787.196 390.436 787.566 390.535 786.751 393.577 786.381 393.478ZM783.815 389.529 784.295 389.658 785.103 392.571 785.777 390.055 786.13 390.15 785.315 393.192 784.889 393.078 784.052 390.058 783.352 392.667 783 392.572ZM780.903 388.749 781.818 388.994C782.015 389.046 782.186 389.122 782.33 389.222 782.475 389.322 782.578 389.447 782.64 389.597 782.702 389.747 782.706 389.923 782.655 390.126L782.65 390.143C782.578 390.391 782.453 390.562 782.276 390.657 782.1 390.752 781.899 390.79 781.675 390.771L782.245 392.37 781.833 392.259 781.281 390.693 780.812 390.567 780.457 391.891 780.088 391.792ZM777.741 387.902 778.111 388.001 777.605 389.891C777.519 390.207 777.517 390.45 777.598 390.62 777.68 390.79 777.847 390.908 778.1 390.972 778.262 391.018 778.408 391.029 778.537 391.006 778.667 390.982 778.781 390.91 778.88 390.789 778.978 390.669 779.06 390.485 779.127 390.239L779.618 388.405 779.988 388.504 779.483 390.389C779.384 390.764 779.211 391.03 778.965 391.189 778.72 391.348 778.401 391.377 778.009 391.276 777.659 391.18 777.416 391.009 777.28 390.763 777.145 390.516 777.126 390.207 777.224 389.834ZM775.303 387.249 777.081 387.725 777.001 388.027 775.592 387.649 775.303 388.727 776.401 389.021 776.32 389.323 775.222 389.028 774.857 390.39 774.488 390.291ZM770.823 386.048 771.627 386.264C771.975 386.36 772.245 386.503 772.438 386.694 772.631 386.885 772.754 387.108 772.805 387.362 772.857 387.616 772.844 387.885 772.767 388.17L772.757 388.208C772.681 388.493 772.558 388.733 772.386 388.93 772.215 389.128 771.997 389.262 771.732 389.334 771.468 389.406 771.158 389.396 770.803 389.304L770.008 389.091ZM768.135 385.328 769.909 385.803 769.828 386.105 768.424 385.729 768.146 386.763 769.279 387.067 769.198 387.368 768.066 387.065 767.77 388.168 769.251 388.565 769.17 388.866 767.319 388.371ZM762.061 383.701 762.431 383.8 761.924 385.689C761.839 386.005 761.836 386.248 761.918 386.419 761.999 386.589 762.167 386.706 762.42 386.771 762.581 386.816 762.727 386.828 762.857 386.804 762.987 386.781 763.101 386.708 763.199 386.588 763.298 386.467 763.38 386.284 763.446 386.038L763.938 384.203 764.308 384.303 763.803 386.188C763.703 386.562 763.531 386.829 763.285 386.988 763.039 387.147 762.721 387.176 762.329 387.074 761.978 386.979 761.735 386.808 761.6 386.561 761.464 386.315 761.446 386.005 761.543 385.633ZM808.023 395.975C808.322 396.058 808.564 396.198 808.749 396.393 808.935 396.588 809.058 396.817 809.118 397.08 809.179 397.344 809.172 397.62 809.096 397.909L809.087 397.943C809.008 398.232 808.876 398.477 808.691 398.677 808.506 398.877 808.286 399.016 808.028 399.094 807.771 399.172 807.493 399.173 807.195 399.096 806.895 399.012 806.65 398.872 806.462 398.674 806.273 398.477 806.148 398.246 806.084 397.981 806.021 397.716 806.027 397.44 806.102 397.152L806.111 397.118C806.191 396.828 806.324 396.583 806.511 396.384 806.697 396.186 806.921 396.049 807.181 395.973 807.441 395.897 807.722 395.898 808.023 395.975ZM802.2 394.415C802.506 394.498 802.729 394.635 802.871 394.826 803.013 395.018 803.063 395.253 803.022 395.533L802.69 395.444C802.706 395.245 802.668 395.086 802.575 394.97 802.482 394.853 802.33 394.767 802.12 394.712 801.91 394.659 801.74 394.663 801.609 394.725 801.478 394.787 801.393 394.891 801.353 395.036 801.324 395.134 801.319 395.223 801.337 395.303 801.355 395.382 801.411 395.46 801.505 395.535 801.598 395.611 801.743 395.691 801.94 395.777 802.266 395.915 802.499 396.073 802.639 396.251 802.779 396.428 802.811 396.658 802.736 396.939 802.66 397.199 802.504 397.385 802.266 397.5 802.028 397.614 801.755 397.633 801.445 397.555 801.176 397.481 800.971 397.378 800.831 397.246 800.69 397.115 800.599 396.965 800.558 396.798 800.517 396.632 800.512 396.458 800.542 396.278L800.899 396.374C800.88 396.5 800.881 396.62 800.903 396.733 800.924 396.847 800.983 396.949 801.079 397.039 801.174 397.129 801.323 397.202 801.524 397.258 801.725 397.309 801.904 397.301 802.061 397.232 802.217 397.164 802.321 397.043 802.372 396.869 802.423 396.701 802.407 396.559 802.325 396.443 802.242 396.327 802.064 396.209 801.792 396.089 801.482 395.958 801.255 395.807 801.112 395.635 800.969 395.463 800.931 395.244 801 394.978 801.069 394.74 801.213 394.568 801.431 394.463 801.65 394.357 801.906 394.341 802.2 394.415ZM766.135 384.751C766.441 384.834 766.665 384.971 766.806 385.163 766.948 385.354 766.998 385.59 766.957 385.87L766.626 385.781C766.641 385.581 766.603 385.423 766.51 385.306 766.417 385.189 766.265 385.103 766.055 385.048 765.845 384.995 765.675 385 765.544 385.061 765.413 385.123 765.328 385.227 765.289 385.372 765.26 385.47 765.254 385.559 765.272 385.639 765.291 385.719 765.347 385.796 765.44 385.872 765.533 385.947 765.678 386.028 765.875 386.113 766.201 386.252 766.434 386.41 766.574 386.587 766.714 386.764 766.746 386.994 766.672 387.276 766.596 387.535 766.439 387.722 766.201 387.836 765.964 387.95 765.69 387.969 765.38 387.892 765.111 387.817 764.907 387.714 764.766 387.583 764.625 387.451 764.534 387.302 764.493 387.135 764.452 386.968 764.447 386.795 764.477 386.615L764.834 386.711C764.815 386.836 764.816 386.956 764.838 387.07 764.86 387.183 764.918 387.285 765.014 387.376 765.109 387.466 765.258 387.539 765.46 387.595 765.661 387.646 765.839 387.637 765.996 387.569 766.152 387.5 766.256 387.379 766.308 387.206 766.359 387.038 766.343 386.896 766.26 386.779 766.177 386.663 766 386.545 765.727 386.425 765.417 386.295 765.191 386.144 765.047 385.971 764.904 385.799 764.867 385.58 764.935 385.314 765.004 385.076 765.148 384.905 765.367 384.799 765.585 384.694 765.841 384.678 766.135 384.751Z" fill="#FFDB5E" fill-rule="evenodd"/><path d="M813.328 364.64C813.16 364.595 813.012 364.597 812.884 364.647L812.631 364.955 812.692 365.345C812.771 365.461 812.898 365.543 813.073 365.59 813.248 365.637 813.398 365.629 813.524 365.568L813.77 365.26 813.707 364.871C813.624 364.763 813.498 364.686 813.328 364.64ZM810.328 362.687C810.174 362.645 810.045 362.656 809.942 362.718 809.839 362.781 809.756 362.877 809.693 363.007L809.52 363.497 809.422 364.02C809.411 364.166 809.434 364.291 809.492 364.397 809.55 364.502 809.656 364.576 809.811 364.617 809.963 364.658 810.091 364.647 810.194 364.585 810.297 364.522 810.38 364.425 810.443 364.294L810.619 363.792 810.714 363.281C810.725 363.137 810.701 363.012 810.643 362.906 810.585 362.801 810.48 362.727 810.328 362.687ZM813.621 363.544C813.465 363.502 813.331 363.506 813.22 363.556L812.999 363.842 813.057 364.184C813.131 364.286 813.243 364.358 813.393 364.398 813.545 364.439 813.678 364.433 813.793 364.379L814.016 364.111 813.966 363.756C813.895 363.657 813.78 363.586 813.621 363.544ZM785.46 355.851 787.067 356.282 787.066 356.286 787 356.534 786.999 356.538 786.352 356.364 785.784 358.482 785.783 358.486 785.473 358.403 785.474 358.399 786.042 356.281 785.391 356.107 785.393 356.103 785.459 355.855ZM781.959 354.91 783.236 355.252 783.235 355.255 783.167 355.507 783.167 355.511 782.199 355.252 781.988 356.041 782.853 356.273 782.852 356.277 782.784 356.529 782.783 356.532 781.918 356.301 781.7 357.114 782.667 357.373 782.667 357.377 782.599 357.629 782.598 357.632 781.321 357.29 781.322 357.286 781.958 354.913ZM784.401 355.535C784.623 355.594 784.791 355.699 784.903 355.848 785.015 355.997 785.055 356.166 785.024 356.355L785.022 356.355 785.023 356.359 784.683 356.268C784.696 356.174 784.669 356.081 784.604 355.989 784.539 355.897 784.437 355.833 784.298 355.796 784.169 355.761 784.054 355.766 783.955 355.811L783.758 356.058 783.774 356.287C783.809 356.354 783.858 356.412 783.922 356.459 783.985 356.507 784.077 356.566 784.197 356.637 784.342 356.722 784.457 356.798 784.541 356.866 784.625 356.934 784.689 357.02 784.734 357.126 784.778 357.231 784.781 357.359 784.741 357.509L784.74 357.511 784.74 357.513C784.709 357.628 784.649 357.729 784.56 357.815 784.471 357.901 784.358 357.959 784.221 357.991 784.084 358.022 783.933 358.016 783.77 357.972 783.613 357.93 783.48 357.865 783.372 357.776 783.263 357.687 783.186 357.584 783.143 357.466 783.099 357.349 783.093 357.225 783.125 357.095L783.126 357.095 783.126 357.091 783.457 357.18C783.438 357.294 783.459 357.4 783.519 357.497 783.579 357.595 783.687 357.665 783.841 357.706 783.989 357.745 784.115 357.74 784.22 357.689L784.422 357.44 784.407 357.201C784.372 357.131 784.321 357.071 784.254 357.021 784.187 356.972 784.095 356.913 783.977 356.845 783.831 356.762 783.717 356.688 783.633 356.621 783.55 356.555 783.487 356.47 783.443 356.364 783.4 356.259 783.398 356.132 783.437 355.985L783.438 355.983 783.438 355.981C783.473 355.852 783.537 355.746 783.629 355.664 783.722 355.581 783.835 355.529 783.969 355.507 784.103 355.484 784.247 355.493 784.401 355.535ZM811.644 362.772 812.284 362.944 812.283 362.948 811.625 365.406 811.624 365.41 811.31 365.326 811.311 365.322 811.894 363.146 811.567 363.059 811.568 363.055 811.643 362.776ZM813.692 363.281C813.864 363.327 814.004 363.396 814.109 363.486 814.215 363.576 814.286 363.679 814.322 363.795 814.358 363.91 814.36 364.029 814.327 364.152L814.326 364.154 814.326 364.156C814.291 364.287 814.225 364.393 814.128 364.473L813.783 364.614 814.055 364.928C814.109 365.058 814.116 365.199 814.075 365.351L814.074 365.353 814.074 365.355C814.035 365.502 813.964 365.621 813.862 365.712 813.759 365.803 813.634 365.86 813.485 365.885 813.336 365.909 813.175 365.898 813.003 365.852 812.83 365.806 812.687 365.735 812.572 365.64 812.458 365.545 812.379 365.433 812.336 365.303 812.293 365.174 812.291 365.035 812.331 364.887L812.332 364.886 812.332 364.884C812.372 364.732 812.448 364.612 812.559 364.525L812.95 364.391 812.718 364.097C812.675 363.983 812.672 363.859 812.709 363.722L812.71 363.721 812.71 363.719C812.742 363.596 812.803 363.494 812.891 363.411 812.978 363.329 813.091 363.275 813.228 363.25 813.365 363.224 813.519 363.235 813.692 363.281ZM810.405 362.4C810.72 362.485 810.912 362.654 810.981 362.907 811.049 363.16 811.031 363.482 810.927 363.872L810.926 363.874 810.926 363.876C810.819 364.273 810.673 364.565 810.487 364.751 810.301 364.937 810.05 364.988 809.734 364.903 809.416 364.818 809.223 364.649 809.155 364.394 809.087 364.14 809.106 363.814 809.213 363.417L809.213 363.415 809.214 363.413C809.318 363.023 809.464 362.735 809.649 362.55 809.835 362.365 810.087 362.315 810.405 362.4ZM808.369 361.847C808.603 361.91 808.771 362.025 808.874 362.191 808.976 362.357 808.997 362.554 808.936 362.781L808.935 362.782 808.935 362.784C808.885 362.973 808.78 363.141 808.62 363.289 808.459 363.437 808.29 363.56 808.111 363.656L807.441 363.978 808.608 364.291 808.607 364.295 808.539 364.55 808.538 364.554 806.9 364.115 806.901 364.111 806.959 363.893 806.96 363.89C807.311 363.736 807.588 363.606 807.791 363.501 807.994 363.396 808.174 363.278 808.33 363.145L808.625 362.714 808.612 362.338C808.563 362.234 808.459 362.16 808.3 362.118 808.146 362.076 808.013 362.092 807.902 362.166 807.791 362.24 807.711 362.356 807.661 362.516L807.361 362.435 807.363 362.432 807.362 362.432C807.439 362.18 807.569 362.004 807.751 361.905 807.934 361.805 808.14 361.786 808.369 361.847Z" fill="#FFDB5E" fill-rule="evenodd"/></g></svg>