<svg overflow="hidden" xmlns:xlink="http://www.w3.org/1999/xlink" xmlns="http://www.w3.org/2000/svg" viewBox="0 0 766 340.43418013856814" style="max-height: 500px" width="766" height="340.43418013856814"><defs><linearGradient id="fill0" spreadMethod="reflect" gradientUnits="userSpaceOnUse" y2="194" x2="640" y1="252" x1="640"><stop stop-color="#FFDB5E" offset="0"/><stop stop-color="#FFDB5E" offset="0.48"/><stop stop-color="#FFCB18" offset="1"/></linearGradient><linearGradient id="fill1" spreadMethod="reflect" gradientUnits="userSpaceOnUse" y2="194" x2="640" y1="252" x1="640"><stop stop-color="#FFDB5E" offset="0"/><stop stop-color="#FFDB5E" offset="0.48"/><stop stop-color="#FFCB18" offset="1"/></linearGradient><linearGradient id="fill2" spreadMethod="reflect" gradientUnits="userSpaceOnUse" y2="194" x2="640" y1="252" x1="640"><stop stop-color="#FFDB5E" offset="0"/><stop stop-color="#FFDB5E" offset="0.48"/><stop stop-color="#FFCB18" offset="1"/></linearGradient><linearGradient id="fill3" spreadMethod="reflect" gradientUnits="userSpaceOnUse" y2="194" x2="640" y1="252" x1="640"><stop stop-color="#FFDB5E" offset="0"/><stop stop-color="#FFDB5E" offset="0.48"/><stop stop-color="#FFCB18" offset="1"/></linearGradient><linearGradient id="fill4" spreadMethod="reflect" gradientUnits="userSpaceOnUse" y2="194" x2="640" y1="252" x1="640"><stop stop-color="#FFDB5E" offset="0"/><stop stop-color="#FFDB5E" offset="0.48"/><stop stop-color="#FFCB18" offset="1"/></linearGradient><linearGradient id="fill5" spreadMethod="reflect" gradientUnits="userSpaceOnUse" y2="-9.08397e-06" x2="130" y1="313" x1="130"><stop stop-color="#FFDB5E" offset="0"/><stop stop-color="#FFDB5E" offset="0.48"/><stop stop-color="#FFCB18" offset="1"/></linearGradient><linearGradient id="fill6" spreadMethod="reflect" gradientUnits="userSpaceOnUse" y2="521" x2="892" y1="208" x1="892"><stop stop-color="#FFDB5E" offset="0"/><stop stop-color="#FFDB5E" offset="0.48"/><stop stop-color="#FFCB18" offset="1"/></linearGradient><linearGradient id="fill7" spreadMethod="reflect" gradientUnits="userSpaceOnUse" y2="296" x2="640" y1="419" x1="640"><stop stop-color="#FFDB5E" offset="0"/><stop stop-color="#FFDB5E" offset="0.48"/><stop stop-color="#FFCB18" offset="1"/></linearGradient></defs><g transform="translate(-257 -194)"><path fill-rule="evenodd" fill="url(#fill0)" d="M670.675 238.755 609.331 238.755C608.601 238.755 607.995 238.258 607.995 237.648 607.995 237.043 608.594 236.541 609.331 236.541L670.675 236.541C671.405 236.541 672.01 237.038 672.01 237.648 672.004 238.258 671.405 238.755 670.675 238.755ZM694.092 244 585.914 244C583.266 244 580.774 243.136 578.899 241.568 577.03 240.01 576 237.956 576 235.782L576 219.213C576 217.019 577.036 214.955 578.899 213.402 580.768 211.854 583.26 211 585.914 211 588.574 211 591.054 211.858 592.929 213.402 594.798 214.95 595.829 217.014 595.829 219.213L595.829 230.329 684.171 230.329 684.171 219.213C684.171 217.019 685.208 214.955 687.071 213.402 688.94 211.854 691.432 211 694.086 211 696.74 211 699.226 211.858 701.1 213.402 702.97 214.95 704 217.014 704 219.213L704 235.782C704 237.976 702.964 240.04 701.1 241.593 699.243 243.151 696.74 244 694.092 244"/><path fill-rule="evenodd" fill="url(#fill1)" d="M600.858 252 597.142 252C593.762 252 591 249.743 591 246.965L591 243.119C591 242.505 591.625 242 592.384 242L605.616 242C606.375 242 607 242.505 607 243.119L607 246.965C606.994 249.737 604.238 252 600.858 252"/><path fill-rule="evenodd" fill="url(#fill2)" d="M682.858 252 679.142 252C675.761 252 673 249.743 673 246.965L673 243.119C673 242.505 673.625 242 674.384 242L687.616 242C688.375 242 689 242.505 689 243.119L689 246.965C689 249.737 686.238 252 682.858 252"/><path fill-rule="evenodd" fill="url(#fill3)" d="M662.663 207.113 617.331 207.113C616.765 208.573 615.121 209.626 613.188 209.626 610.833 209.626 608.912 208.001 608.912 206 608.912 203.999 610.833 202.374 613.188 202.374 615.127 202.374 616.765 203.427 617.331 204.887L662.663 204.887C663.229 203.427 664.873 202.374 666.807 202.374 669.161 202.374 671.083 203.999 671.083 206 671.083 208.001 669.161 209.626 666.807 209.626 664.873 209.626 663.229 208.567 662.663 207.113ZM666.812 204.601C665.873 204.601 665.138 205.213 665.138 205.995 665.138 206.777 665.873 207.389 666.812 207.389 667.674 207.389 668.403 206.747 668.403 205.995 668.403 205.243 667.674 204.601 666.812 204.601ZM613.188 204.601C612.326 204.601 611.597 205.243 611.597 205.995 611.597 206.747 612.326 207.389 613.188 207.389 614.127 207.389 614.862 206.777 614.862 205.995 614.862 205.213 614.127 204.601 613.188 204.601ZM593 209.992C593.452 205.925 595.577 202.139 599.101 199.195 603.1 195.845 608.4 194 614.025 194L665.975 194C671.6 194 676.9 195.84 680.899 199.195 684.423 202.139 686.542 205.925 687 209.992 686.446 210.323 685.922 210.694 685.428 211.105 683.206 212.96 681.911 215.397 681.748 218L598.252 218C598.089 215.397 596.794 212.955 594.566 211.105 594.078 210.694 593.554 210.323 593 209.992"/><path fill-rule="evenodd" fill="url(#fill4)" d="M598 221 682 221 682 228 598 228 598 221"/><path transform="matrix(1 0 0 -1 258 521)" fill-rule="evenodd" fill="url(#fill5)" d="M54.7993 312.259C46.1984 310.537 37.1062 300.206 33.9117 288.399 32.1915 281.758 29.4884 277.084 27.5225 277.084 21.1334 277.084 5.40621 266.753 2.70311 260.604-1.96588 250.273-0.245807 236.498 8.35512 214.115 18.9217 186.811 23.0993 164.428 20.8876 146.718 20.1504 139.338 14.99 120.152 9.58377 104.41 4.42318 88.6674 0 71.2032 0 65.7918 0 53.493 9.09235 42.1782 22.1163 38.2426 30.2256 35.7827 31.7 34.061 33.1745 26.6817 34.1573 21.7622 38.3349 14.3829 42.7583 9.95546 54.0621-1.35954 65.366-2.34334 112.302 3.56002L151.128 8.72543 106.404 7.24973C57.0108 5.77385 50.376 7.00369 43.4953 18.5645 36.8604 29.6333 38.0893 35.2908 47.6729 38.4884 57.9939 41.9321 65.8574 50.0493 67.8232 59.8884 69.0521 65.7918 68.3149 68.2515 63.8915 71.2032 52.8335 78.8283 41.5294 69.2355 33.6659 45.3758 32.4373 41.9321 30.717 41.6863 24.3279 43.408 3.19453 49.5574 1.47446 60.1343 14.99 98.7524 24.5738 126.548 25.3108 129.991 25.5566 156.557 25.8024 184.352 25.5566 185.336 15.4814 211.655 9.58377 226.413 4.91479 242.156 4.91479 246.337 4.91479 256.176 10.8124 264.54 21.1334 268.721 32.1915 273.395 34.4031 273.149 34.4031 266.999 34.4031 255.931 46.9356 240.188 55.7822 240.188 63.4001 240.188 69.5435 250.027 66.5946 257.652 63.6459 265.523 54.3077 273.887 46.1984 275.854 38.3349 277.822 37.3521 283.48 43.0039 294.057 49.6387 306.847 86.6216 303.629 122.377 304.633L257.535 300.084C272.771 300.576 213.34 304.11 189.831 305.771 166.321 307.431 138.984 308.964 116.479 310.045 93.974 311.126 65.8574 314.473 54.7993 312.259ZM56.2736 264.54C60.4512 260.358 63.8915 256.176 63.8915 254.947 63.8915 242.648 51.6046 241.664 44.4783 253.471 33.4201 271.181 42.021 279.052 56.2736 264.54ZM60.9428 67.5135C62.6628 65.7918 63.8915 62.84 63.8915 60.6262 63.8915 55.7068 52.3418 44.6378 44.9698 42.1782 40.3008 40.9483 39.3179 41.6863 39.3179 45.8677 39.3179 52.755 45.707 64.8078 50.8676 67.7596 56.5194 70.9572 57.5024 70.9572 60.9428 67.5135Z"/><path fill-rule="evenodd" fill="url(#fill6)" d="M967.201 208.741C975.802 210.463 984.894 220.794 988.088 232.601 989.809 239.242 992.512 243.916 994.478 243.916 1000.87 243.916 1016.59 254.247 1019.3 260.396 1023.97 270.727 1022.25 284.502 1013.64 306.885 1003.08 334.189 998.901 356.572 1001.11 374.282 1001.85 381.662 1007.01 400.848 1012.42 416.59 1017.58 432.333 1022 449.797 1022 455.208 1022 467.507 1012.91 478.822 999.884 482.757 991.774 485.217 990.3 486.939 988.826 494.318 987.843 499.238 983.665 506.617 979.242 511.045 967.938 522.36 956.634 523.343 909.698 517.44L870.872 512.275 915.596 513.75C964.989 515.226 971.624 513.996 978.505 502.435 985.14 491.367 983.911 485.709 974.327 482.512 964.006 479.068 956.143 470.951 954.177 461.112 952.948 455.208 953.685 452.749 958.109 449.797 969.167 442.172 980.471 451.765 988.334 475.624 989.563 479.068 991.283 479.314 997.672 477.592 1018.81 471.443 1020.53 460.866 1007.01 422.248 997.426 394.452 996.689 391.009 996.443 364.443 996.198 336.648 996.443 335.664 1006.52 309.345 1012.42 294.587 1017.09 278.844 1017.09 274.663 1017.09 264.824 1011.19 256.46 1000.87 252.279 989.809 247.605 987.597 247.851 987.597 254.001 987.597 265.069 975.064 280.812 966.218 280.812 958.6 280.812 952.456 270.973 955.405 263.348 958.354 255.477 967.692 247.113 975.802 245.146 983.665 243.178 984.648 237.52 978.996 226.943 972.361 214.153 935.378 217.371 899.623 216.367L764.465 220.916C749.229 220.424 808.66 216.89 832.169 215.229 855.679 213.569 883.016 212.036 905.521 210.955 928.026 209.874 956.143 206.527 967.201 208.741ZM965.726 256.46C961.549 260.642 958.109 264.824 958.109 266.053 958.109 278.352 970.395 279.336 977.522 267.529 988.58 249.819 979.979 241.948 965.726 256.46ZM961.057 453.486C959.337 455.208 958.109 458.16 958.109 460.374 958.109 465.293 969.658 476.362 977.03 478.822 981.699 480.052 982.682 479.314 982.682 475.132 982.682 468.245 976.293 456.192 971.132 453.24 965.481 450.043 964.498 450.043 961.057 453.486Z"/><path fill-rule="evenodd" fill="url(#fill7)" d="M879.354 363.584 877.027 378.329 882.14 380.027C884.091 380.661 885.631 380.511 886.761 379.576 887.891 378.64 888.636 377.009 888.997 374.682L889.052 374.333C889.442 371.98 889.252 370.042 888.482 368.52 887.712 366.998 886.253 365.878 884.106 365.161ZM930.087 361.547 919.803 382.354 928.921 387.068ZM361.735 361.108C360.458 360.57 358.862 360.82 356.948 361.859L353.064 363.917 356.707 378.377 360.532 376.35C364.522 374.235 365.898 370.743 364.66 365.872L364.575 365.535C363.959 363.122 363.012 361.646 361.735 361.108ZM361.716 346.033C363.998 345.726 366.06 345.986 367.903 346.812 371.588 348.466 374.243 352.458 375.866 358.789L375.951 359.125C376.983 363.403 377.138 367.175 376.414 370.44 375.691 373.705 374.373 376.516 372.462 378.875L388.625 398.492 376.121 405.119 362.301 388.066 359.519 389.54 364.936 411.047 353.128 417.305 338 357.248 354.213 348.655C356.933 347.214 359.435 346.34 361.716 346.033ZM926.611 343.999 942 351.955 940.382 419 927.78 412.484 928.327 400.138 914.564 393.022 909.603 403.086 898.511 397.351ZM883.11 339.781 881.072 352.696 885.764 354.254C887.667 354.899 889.11 354.846 890.094 354.096 891.078 353.345 891.734 351.861 892.063 349.641L892.118 349.292C892.467 347.168 892.298 345.462 891.612 344.177 890.926 342.891 889.656 341.945 887.802 341.339ZM840.12 329.402C837.007 328.721 834.404 329.719 832.309 332.395 830.214 335.072 828.837 339.294 828.178 345.06L828.101 345.767C827.516 351.559 827.953 356.225 829.415 359.767 830.876 363.308 833.134 365.447 836.188 366.183 839.303 366.841 841.914 365.777 844.021 362.99 846.128 360.204 847.507 355.96 848.159 350.259L848.235 349.552C848.815 343.89 848.384 339.304 846.942 335.795 845.501 332.287 843.226 330.155 840.12 329.402ZM872.966 323.946 892.138 330.311C897.173 332.061 900.618 334.791 902.473 338.499 904.329 342.209 904.853 346.514 904.047 351.416L903.992 351.765C903.437 355.264 902.372 357.943 900.795 359.803 899.219 361.663 897.156 362.656 894.605 362.781 897.175 364.306 899.029 366.511 900.167 369.397 901.306 372.282 901.549 375.881 900.897 380.194L900.842 380.544C899.972 386.153 898.021 390.015 894.991 392.131 891.961 394.246 887.791 394.436 882.482 392.7L863.13 386.274ZM419.469 323.029 425.295 359.815C426.668 368.873 426.014 376.139 423.333 381.615 420.652 387.091 416.32 390.813 410.337 392.779 404.231 394.807 399.19 394.163 395.213 390.849 391.235 387.535 388.539 381.522 387.122 372.812L381.254 335.763 393.567 331.66 399.31 367.924C399.96 372.336 400.948 375.46 402.274 377.295 403.6 379.13 405.548 379.617 408.116 378.756 410.637 377.944 412.231 376.3 412.898 373.824 413.565 371.347 413.511 367.797 412.738 363.174L407.036 327.172ZM788.762 319.757C785.63 319.312 783.066 320.505 781.07 323.336 779.073 326.167 777.85 330.487 777.399 336.296L777.348 337.007C776.971 342.835 777.576 347.462 779.162 350.889 780.749 354.315 783.081 356.28 786.157 356.784 789.291 357.207 791.86 355.947 793.864 353.004 795.868 350.062 797.093 345.72 797.539 339.978L797.59 339.266C797.966 333.568 797.371 329.021 795.805 325.625 794.24 322.23 791.892 320.274 788.762 319.757ZM841.653 315.277C846.116 316.325 849.939 318.518 853.121 321.855 856.303 325.192 858.629 329.45 860.098 334.629 861.568 339.809 861.966 345.686 861.292 352.263L861.215 352.97C860.054 362.818 857.08 370.212 852.293 375.152 847.507 380.092 841.543 381.822 834.401 380.341 829.694 379.218 825.786 376.912 822.675 373.422 819.565 369.932 817.351 365.566 816.033 360.322 814.716 355.079 814.393 349.264 815.064 342.88L815.141 342.173C815.885 335.72 817.521 330.321 820.047 325.975 822.573 321.629 825.708 318.519 829.45 316.645 833.193 314.77 837.26 314.314 841.653 315.277ZM738.289 313.991 737.577 329.351 741.641 329.747C745.879 330.16 748.113 327.777 748.342 322.596L748.359 322.239C748.47 319.67 748.017 317.765 747 316.522 745.983 315.279 744.454 314.569 742.414 314.393ZM697.145 312.14 691.68 336.484 701.354 336.978ZM602.032 311.723 597.638 336.519 607.314 336.126ZM468.549 311.49 455.793 344.48 476.296 374.448 461.862 377.764 446.433 354.236 449.316 380.646 436.777 383.526 429.883 320.372 442.421 317.492 445.15 342.488 455.515 314.484ZM789.787 305.534C794.281 306.244 798.177 308.145 801.475 311.237 804.772 314.329 807.248 318.406 808.901 323.467 810.555 328.528 811.163 334.368 810.726 340.987L810.675 341.699C809.869 351.621 807.165 359.23 802.562 364.525 797.96 369.82 792.066 371.998 784.881 371.058 780.14 370.292 776.154 368.285 772.922 365.035 769.691 361.785 767.323 357.591 765.819 352.454 764.315 347.317 763.784 341.535 764.225 335.109L764.276 334.397C764.788 327.897 766.227 322.382 768.594 317.851 770.961 313.32 773.979 309.977 777.649 307.823 781.32 305.668 785.365 304.905 789.787 305.534ZM513.387 304.282 516.232 341.801C516.871 351.029 515.64 358.137 512.539 363.124 509.438 368.112 504.838 371.079 498.738 372.025 492.511 373.011 487.555 371.524 483.87 367.562 480.185 363.601 477.987 357.176 477.277 348.285L474.413 310.5 486.97 308.496 489.774 345.482C490.067 349.974 490.798 353.243 491.969 355.289 493.139 357.335 495.034 358.146 497.654 357.722 500.223 357.341 501.937 355.976 502.798 353.629 503.658 351.281 503.889 347.746 503.491 343.024L500.707 306.305ZM562.217 299.086 565.307 362.869 553.135 364.11 535.133 325.693 537.074 365.747 526.01 366.875 522.919 303.091 537.122 301.644 552.956 336.158 551.214 300.207ZM726.382 299.036 743.604 300.715C749.384 301.28 753.727 303.402 756.634 307.08 759.541 310.759 760.852 315.969 760.566 322.711L760.55 323.068C760.298 327.586 759.385 331.125 757.811 333.684 756.237 336.243 754.247 338.039 751.841 339.071L761.133 366.508 747.85 365.213 739.983 341.497 737.028 341.209 735.969 364.055 723.426 362.833ZM690.173 296.938 706.501 297.772 718.935 362.388 705.565 361.705 703.512 349.697 688.91 348.951 686.28 360.719 674.511 360.118ZM610.743 296.527 625.966 359.875 612.593 360.418 610.022 348.622 595.416 349.215 593.304 361.201 581.533 361.679 594.412 297.19ZM643.18 296 643.2 345.73 659.849 345.716 659.855 359.926 630.511 359.952 630.485 296.011Z"/><path fill-rule="evenodd" fill="#FFDB5E" d="M818.908 502.798 818.908 512.204 823.596 512.204C825.385 512.204 826.747 511.813 827.68 511.033 828.613 510.252 829.082 509.081 829.088 507.519L829.088 507.377C829.071 505.68 828.58 504.486 827.614 503.796 826.648 503.107 825.309 502.774 823.596 502.798ZM688.248 502.798 688.248 512.204 692.936 512.204C694.725 512.204 696.087 511.813 697.019 511.033 697.952 510.252 698.422 509.081 698.428 507.519L698.428 507.377C698.411 505.68 697.92 504.486 696.954 503.796 695.988 503.107 694.649 502.774 692.936 502.798ZM577.831 502.798 577.831 512.204 582.519 512.204C584.308 512.204 585.67 511.813 586.603 511.033 587.535 510.252 588.005 509.081 588.011 507.519L588.011 507.377C587.994 505.68 587.503 504.486 586.537 503.796 585.571 503.107 584.232 502.774 582.519 502.798ZM495.018 502.798 495.018 523.166 498.446 523.166C501.664 523.133 504.078 522.224 505.686 520.438 507.295 518.653 508.1 516.191 508.1 513.053L508.1 512.769C508.127 509.792 507.373 507.399 505.839 505.588 504.306 503.778 501.829 502.848 498.411 502.798ZM797.508 502.479C794.586 502.534 792.333 503.506 790.749 505.397 789.165 507.288 788.364 509.769 788.345 512.84L788.345 513.124C788.362 515.184 788.774 516.986 789.581 518.529 790.387 520.073 791.483 521.276 792.868 522.137 794.253 522.999 795.823 523.436 797.578 523.45 800.385 523.4 802.578 522.435 804.157 520.554 805.736 518.672 806.539 516.172 806.566 513.053L806.566 512.769C806.561 510.855 806.206 509.124 805.5 507.578 804.795 506.032 803.768 504.801 802.421 503.885 801.074 502.969 799.437 502.501 797.508 502.479ZM839.794 500.319 854.37 500.319 854.37 502.834 842.832 502.834 842.832 511.459 852.133 511.459 852.133 513.973 842.832 513.973 842.832 523.166 855 523.166 855 525.681 839.794 525.681ZM815.871 500.319 823.386 500.319C825.002 500.312 826.468 500.546 827.781 501.021 829.095 501.496 830.143 502.253 830.924 503.292 831.706 504.331 832.106 505.692 832.125 507.377L832.125 507.519C832.082 509.597 831.479 511.189 830.318 512.295 829.156 513.401 827.697 514.114 825.939 514.435L833.594 525.681 830.205 525.681 822.756 514.647 818.908 514.647 818.908 525.681 815.871 525.681ZM764.05 500.319 781.633 500.319 781.633 502.834 774.361 502.834 774.361 525.681 771.323 525.681 771.323 502.834 764.05 502.834ZM709.134 500.319 723.71 500.319 723.71 502.834 712.172 502.834 712.172 511.459 721.473 511.459 721.473 513.973 712.172 513.973 712.172 523.166 724.34 523.166 724.34 525.681 709.134 525.681ZM685.211 500.319 692.726 500.319C694.342 500.312 695.807 500.546 697.121 501.021 698.435 501.496 699.483 502.253 700.264 503.292 701.046 504.331 701.446 505.692 701.465 507.377L701.465 507.519C701.422 509.597 700.819 511.189 699.657 512.295 698.496 513.401 697.036 514.114 695.279 514.435L702.934 525.681 699.545 525.681 692.096 514.647 688.248 514.647 688.248 525.681 685.211 525.681ZM659.237 500.319 662.275 500.319 662.275 516.071C662.265 518.706 662.747 520.602 663.722 521.756 664.696 522.911 666.219 523.475 668.291 523.45 669.625 523.468 670.765 523.25 671.713 522.797 672.661 522.343 673.388 521.545 673.892 520.402 674.397 519.258 674.652 517.661 674.657 515.61L674.657 500.319 677.694 500.319 677.694 516.035C677.702 519.151 676.927 521.584 675.371 523.333 673.815 525.081 671.431 525.971 668.221 526 665.337 525.987 663.122 525.163 661.578 523.528 660.033 521.893 659.253 519.525 659.237 516.426ZM635.23 500.319 652.814 500.319 652.814 502.834 645.541 502.834 645.541 525.681 642.503 525.681 642.503 502.834 635.23 502.834ZM626.496 500.319 629.534 500.319 629.534 525.681 626.496 525.681ZM598.717 500.319 602.664 500.319 614.836 521.286 614.836 500.319 617.734 500.319 617.734 525.681 614.242 525.681 601.615 503.933 601.615 525.681 598.717 525.681ZM574.794 500.319 582.309 500.319C583.925 500.312 585.391 500.546 586.704 501.021 588.018 501.496 589.066 502.253 589.847 503.292 590.629 504.331 591.029 505.692 591.048 507.377L591.048 507.519C591.005 509.597 590.402 511.189 589.241 512.295 588.079 513.401 586.62 514.114 584.862 514.435L592.517 525.681 589.128 525.681 581.679 514.647 577.831 514.647 577.831 525.681 574.794 525.681ZM548.82 500.319 551.858 500.319 551.858 516.071C551.848 518.706 552.33 520.602 553.305 521.756 554.279 522.911 555.802 523.475 557.874 523.45 559.208 523.468 560.348 523.25 561.296 522.797 562.244 522.343 562.97 521.545 563.475 520.402 563.98 519.258 564.235 517.661 564.24 515.61L564.24 500.319 567.277 500.319 567.277 516.035C567.285 519.151 566.51 521.584 564.954 523.333 563.398 525.081 561.014 525.971 557.804 526 554.92 525.987 552.705 525.163 551.161 523.528 549.616 521.893 548.836 519.525 548.82 516.426ZM528.786 500.319 543.398 500.319 543.398 502.834 531.824 502.834 531.824 511.814 540.845 511.814 540.845 514.328 531.824 514.328 531.824 525.681 528.786 525.681ZM491.981 500.319 498.586 500.319C501.451 500.342 503.82 500.895 505.692 501.978 507.563 503.061 508.957 504.536 509.873 506.403 510.789 508.271 511.246 510.393 511.242 512.769L511.242 513.089C511.247 515.456 510.795 517.585 509.886 519.476 508.977 521.367 507.583 522.867 505.702 523.977 503.821 525.087 501.426 525.655 498.516 525.681L491.981 525.681ZM469.897 500.319 484.474 500.319 484.474 502.834 472.935 502.834 472.935 511.459 482.236 511.459 482.236 513.973 472.935 513.973 472.935 523.166 485.103 523.166 485.103 525.681 469.897 525.681ZM420 500.319 423.038 500.319 423.038 516.071C423.028 518.706 423.511 520.602 424.485 521.756 425.459 522.911 426.982 523.475 429.054 523.45 430.388 523.468 431.529 523.25 432.476 522.797 433.424 522.343 434.151 521.545 434.655 520.402 435.16 519.258 435.415 517.661 435.42 515.61L435.42 500.319 438.458 500.319 438.458 516.035C438.465 519.151 437.69 521.584 436.134 523.333 434.578 525.081 432.194 525.971 428.984 526 426.1 525.987 423.886 525.163 422.341 523.528 420.796 521.893 420.016 519.525 420 516.426ZM797.508 500C799.971 500.026 802.113 500.604 803.935 501.735 805.758 502.865 807.172 504.392 808.178 506.315 809.184 508.238 809.694 510.401 809.709 512.805L809.709 513.089C809.694 515.505 809.184 517.682 808.18 519.622 807.176 521.561 805.768 523.102 803.956 524.245 802.144 525.388 800.018 525.973 797.578 526 795.102 525.973 792.939 525.389 791.09 524.248 789.24 523.107 787.801 521.572 786.771 519.643 785.741 517.713 785.219 515.552 785.202 513.16L785.202 512.876C785.218 510.449 785.738 508.269 786.761 506.336 787.784 504.403 789.214 502.87 791.053 501.737 792.893 500.605 795.044 500.025 797.508 500ZM749.67 500C752.186 500.009 754.183 500.61 755.662 501.803 757.141 502.995 758.011 504.723 758.27 506.985L755.546 506.985C755.258 505.4 754.637 504.25 753.683 503.534 752.73 502.819 751.392 502.467 749.67 502.479 747.953 502.502 746.656 502.891 745.778 503.645 744.901 504.4 744.461 505.383 744.458 506.595 744.438 507.419 744.579 508.121 744.883 508.703 745.186 509.285 745.774 509.772 746.645 510.164 747.516 510.557 748.792 510.881 750.474 511.137 753.261 511.533 755.372 512.275 756.807 513.364 758.242 514.452 758.962 516.17 758.969 518.518 758.919 520.692 758.101 522.472 756.514 523.856 754.927 525.24 752.867 525.954 750.334 526 748.122 525.981 746.341 525.606 744.992 524.875 743.643 524.144 742.64 523.173 741.983 521.961 741.325 520.749 740.928 519.412 740.791 517.95L743.725 517.95C743.834 518.968 744.089 519.897 744.49 520.735 744.89 521.573 745.55 522.244 746.467 522.747 747.385 523.25 748.674 523.508 750.334 523.521 751.98 523.501 753.332 523.062 754.392 522.204 755.451 521.345 755.999 520.188 756.036 518.731 756.081 517.319 755.667 516.247 754.794 515.515 753.921 514.782 752.318 514.234 749.984 513.869 747.341 513.503 745.293 512.799 743.84 511.758 742.387 510.717 741.65 509.091 741.63 506.879 741.67 504.885 742.419 503.25 743.879 501.976 745.338 500.701 747.269 500.043 749.67 500ZM453.384 500C455.9 500.009 457.898 500.61 459.377 501.803 460.856 502.995 461.725 504.723 461.985 506.985L459.261 506.985C458.972 505.4 458.351 504.25 457.398 503.534 456.445 502.819 455.107 502.467 453.384 502.479 451.667 502.502 450.37 502.891 449.493 503.645 448.615 504.4 448.175 505.383 448.172 506.595 448.152 507.419 448.294 508.121 448.597 508.703 448.901 509.285 449.488 509.772 450.359 510.164 451.23 510.557 452.507 510.881 454.189 511.137 456.976 511.533 459.087 512.275 460.521 513.364 461.956 514.452 462.677 516.17 462.683 518.518 462.634 520.692 461.815 522.472 460.228 523.856 458.642 525.24 456.582 525.954 454.049 526 451.837 525.981 450.056 525.606 448.707 524.875 447.358 524.144 446.355 523.173 445.697 521.961 445.04 520.749 444.643 519.412 444.505 517.95L447.439 517.95C447.548 518.968 447.803 519.897 448.204 520.735 448.605 521.573 449.264 522.244 450.182 522.747 451.1 523.25 452.389 523.508 454.049 523.521 455.694 523.501 457.047 523.062 458.106 522.204 459.166 521.345 459.714 520.188 459.75 518.731 459.795 517.319 459.381 516.247 458.508 515.515 457.635 514.782 456.032 514.234 453.699 513.869 451.055 513.503 449.007 512.799 447.554 511.758 446.101 510.717 445.365 509.091 445.345 506.879 445.384 504.885 446.134 503.25 447.593 501.976 449.053 500.701 450.983 500.043 453.384 500Z"/><path fill-rule="evenodd" fill="#FFDB5E" d="M773.8 249.125C772.418 249.125 771.288 249.444 770.411 250.082L769.101 252.938 770.369 255.78C771.218 256.501 772.362 256.862 773.8 256.862 775.238 256.862 776.378 256.501 777.218 255.78L778.472 252.938 777.19 250.11C776.331 249.454 775.201 249.125 773.8 249.125ZM746.758 240.388C745.488 240.388 744.522 240.73 743.859 241.414 743.196 242.098 742.757 243 742.542 244.119L742.221 248.195 742.542 252.368C742.757 253.496 743.196 254.402 743.859 255.087 744.522 255.771 745.488 256.113 746.758 256.113 748.01 256.113 748.967 255.771 749.63 255.087 750.293 254.402 750.732 253.496 750.946 252.368L751.267 248.195 750.946 244.119C750.732 243 750.293 242.098 749.63 241.414 748.967 240.73 748.01 240.388 746.758 240.388ZM773.8 240.194C772.512 240.194 771.494 240.499 770.747 241.109L769.633 243.728 770.789 246.21C771.564 246.839 772.568 247.154 773.8 247.154 775.052 247.154 776.065 246.835 776.84 246.197L777.996 243.701 776.882 241.109C776.135 240.499 775.108 240.194 773.8 240.194ZM541.811 239.082 555.034 239.082 555.034 239.112 555.034 241.134 555.034 241.165 549.711 241.165 549.711 258.415 549.711 258.445 547.162 258.445 547.162 258.415 547.162 241.165 541.811 241.165 541.811 241.134 541.811 239.112ZM513 239.054 523.506 239.054 523.506 239.084 523.506 241.134 523.506 241.165 515.549 241.165 515.549 247.597 522.665 247.597 522.665 247.627 522.665 249.678 522.665 249.708 515.549 249.708 515.549 256.335 523.506 256.335 523.506 256.365 523.506 258.415 523.506 258.445 513 258.445 513 258.415 513 239.084ZM533.031 238.832C534.861 238.832 536.36 239.285 537.527 240.191 538.694 241.097 539.352 242.299 539.502 243.797L539.485 243.797 539.502 243.827 536.7 243.827C536.607 243.088 536.215 242.436 535.524 241.872 534.833 241.308 533.918 241.026 532.778 241.026 531.714 241.026 530.845 241.299 530.173 241.844L529.17 244.119 529.767 245.822C530.168 246.266 530.663 246.603 531.252 246.835 531.84 247.066 532.666 247.329 533.731 247.625 535.019 247.976 536.056 248.323 536.841 248.665 537.625 249.007 538.297 249.534 538.857 250.246 539.418 250.958 539.698 251.924 539.698 253.145L539.694 253.16 539.698 253.175C539.698 254.118 539.446 255.006 538.942 255.838 538.437 256.67 537.69 257.345 536.7 257.863 535.711 258.381 534.543 258.639 533.199 258.639 531.91 258.639 530.757 258.413 529.739 257.96 528.721 257.507 527.922 256.878 527.344 256.074 526.765 255.269 526.466 254.34 526.447 253.286L526.457 253.286 526.447 253.256 529.164 253.256C529.258 254.162 529.636 254.925 530.299 255.544 530.962 256.164 531.929 256.473 533.199 256.473 534.413 256.473 535.37 256.173 536.07 255.572L537.115 253.269 536.504 251.483C536.093 251.021 535.58 250.669 534.964 250.429 534.347 250.189 533.516 249.93 532.47 249.652 531.181 249.32 530.15 248.987 529.375 248.654 528.6 248.321 527.937 247.799 527.386 247.087 526.835 246.375 526.559 245.418 526.559 244.216L526.563 244.201 526.559 244.186C526.559 243.131 526.83 242.198 527.372 241.384 527.913 240.57 528.674 239.942 529.655 239.498 530.635 239.054 531.76 238.832 533.031 238.832ZM757.036 238.361 762.302 238.361 762.302 238.391 762.302 258.415 762.302 258.445 759.725 258.445 759.725 258.415 759.725 240.693 757.036 240.693 757.036 240.663 757.036 238.391ZM773.8 238.055C775.22 238.055 776.429 238.291 777.428 238.763 778.427 239.234 779.184 239.872 779.697 240.677 780.211 241.481 780.468 242.383 780.468 243.381L780.463 243.396 780.468 243.411C780.468 244.484 780.178 245.422 779.599 246.227L777.239 248 779.978 249.83C780.659 250.709 781 251.767 781 253.006L780.995 253.022 781 253.036C781 254.238 780.701 255.288 780.104 256.185 779.506 257.081 778.661 257.775 777.568 258.265 776.476 258.755 775.22 259 773.8 259 772.381 259 771.134 258.755 770.06 258.265 768.986 257.775 768.151 257.081 767.553 256.185 766.955 255.288 766.656 254.238 766.656 253.036L766.661 253.022 766.656 253.006C766.656 251.767 766.993 250.704 767.665 249.816L770.389 248 768.001 246.241C767.441 245.464 767.161 244.521 767.161 243.411L767.165 243.396 767.161 243.381C767.161 242.383 767.413 241.481 767.917 240.677 768.421 239.872 769.173 239.234 770.172 238.763 771.172 238.291 772.381 238.055 773.8 238.055ZM746.758 238.055C749.354 238.055 751.175 238.948 752.221 240.732 753.267 242.517 753.79 244.999 753.79 248.18L753.789 248.195 753.79 248.21C753.79 251.446 753.267 253.961 752.221 255.755 751.175 257.548 749.354 258.445 746.758 258.445 744.143 258.445 742.313 257.548 741.267 255.755 740.221 253.961 739.698 251.446 739.698 248.21L739.7 248.195 739.698 248.18C739.698 244.999 740.221 242.517 741.267 240.732 742.313 238.948 744.143 238.055 746.758 238.055ZM729.993 238C731.917 238 733.444 238.527 734.574 239.581 735.704 240.635 736.269 242.087 736.269 243.936L736.264 243.953 736.269 243.966C736.269 245.501 735.806 246.994 734.882 248.446 733.957 249.897 732.907 251.173 731.73 252.274L727.255 256.085 736.857 256.085 736.857 256.115 736.857 258.193 736.857 258.223 723.382 258.223 723.382 258.193 723.382 256.42 723.382 256.39C725.754 254.504 727.612 252.955 728.957 251.744 730.302 250.533 731.436 249.266 732.361 247.944L733.742 244.061 732.865 241.234C732.277 240.54 731.329 240.194 730.021 240.194 728.751 240.194 727.766 240.587 727.066 241.373 726.365 242.159 725.987 243.208 725.931 244.521L723.466 244.521 723.478 244.491 723.466 244.491C723.541 242.42 724.176 240.82 725.371 239.692 726.566 238.564 728.107 238 729.993 238Z"/></g></svg>